<?xml version="1.0" encoding="UTF-8" standalone="no"?>
<!DOCTYPE svg PUBLIC "-//W3C//DTD SVG 1.1//EN"
 "http://www.w3.org/Graphics/SVG/1.1/DTD/svg11.dtd">
<!-- Generated by graphviz version 2.43.0 (0)
 -->
<!-- Title: foogrph Pages: 1 -->
<svg width="273pt" height="152pt"
 viewBox="0.00 0.00 273.00 152.00" xmlns="http://www.w3.org/2000/svg" xmlns:xlink="http://www.w3.org/1999/xlink">
<g id="graph0" class="graph" transform="scale(1 1) rotate(0) translate(4 148)">
<title>foogrph</title>
<polygon fill="white" stroke="transparent" points="-4,4 -4,-148 269,-148 269,4 -4,4"/>
<!-- node21 -->
<g id="node1" class="node">
<title>node21</title>
<polygon fill="none" stroke="black" points="78,-120.5 78,-143.5 148,-143.5 148,-120.5 78,-120.5"/>
<text text-anchor="middle" x="88" y="-128.3" font-family="Times,serif" font-size="14.00"> </text>
<polyline fill="none" stroke="black" points="98,-120.5 98,-143.5 "/>
<text text-anchor="middle" x="113" y="-128.3" font-family="Times,serif" font-size="14.00">21</text>
<polyline fill="none" stroke="black" points="128,-120.5 128,-143.5 "/>
<text text-anchor="middle" x="138" y="-128.3" font-family="Times,serif" font-size="14.00"> </text>
</g>
<!-- node20 -->
<g id="node2" class="node">
<title>node20</title>
<polygon fill="none" stroke="black" points="15,-60.5 15,-83.5 85,-83.5 85,-60.5 15,-60.5"/>
<text text-anchor="middle" x="25" y="-68.3" font-family="Times,serif" font-size="14.00"> </text>
<polyline fill="none" stroke="black" points="35,-60.5 35,-83.5 "/>
<text text-anchor="middle" x="50" y="-68.3" font-family="Times,serif" font-size="14.00">20</text>
<polyline fill="none" stroke="black" points="65,-60.5 65,-83.5 "/>
<text text-anchor="middle" x="75" y="-68.3" font-family="Times,serif" font-size="14.00"> </text>
</g>
<!-- node21&#45;&gt;node20 -->
<g id="edge1" class="edge">
<title>node21:left&#45;&gt;node20:center</title>
<path fill="none" stroke="black" d="M88,-120C88,-100.92 62.43,-104.57 53.24,-93.66"/>
<polygon fill="black" stroke="black" points="56.5,-92.37 50,-84 49.86,-94.59 56.5,-92.37"/>
</g>
<!-- node19 -->
<g id="node4" class="node">
<title>node19</title>
<polygon fill="none" stroke="black" points="141,-60.5 141,-83.5 211,-83.5 211,-60.5 141,-60.5"/>
<text text-anchor="middle" x="151" y="-68.3" font-family="Times,serif" font-size="14.00"> </text>
<polyline fill="none" stroke="black" points="161,-60.5 161,-83.5 "/>
<text text-anchor="middle" x="176" y="-68.3" font-family="Times,serif" font-size="14.00">19</text>
<polyline fill="none" stroke="black" points="191,-60.5 191,-83.5 "/>
<text text-anchor="middle" x="201" y="-68.3" font-family="Times,serif" font-size="14.00"> </text>
</g>
<!-- node21&#45;&gt;node19 -->
<g id="edge4" class="edge">
<title>node21:right&#45;&gt;node19:center</title>
<path fill="none" stroke="black" d="M138,-120C138,-100.92 163.57,-104.57 172.76,-93.66"/>
<polygon fill="black" stroke="black" points="176.14,-94.59 176,-84 169.5,-92.37 176.14,-94.59"/>
</g>
<!-- node18 -->
<g id="node3" class="node">
<title>node18</title>
<polygon fill="none" stroke="black" points="0,-0.5 0,-23.5 70,-23.5 70,-0.5 0,-0.5"/>
<text text-anchor="middle" x="10" y="-8.3" font-family="Times,serif" font-size="14.00"> </text>
<polyline fill="none" stroke="black" points="20,-0.5 20,-23.5 "/>
<text text-anchor="middle" x="35" y="-8.3" font-family="Times,serif" font-size="14.00">18</text>
<polyline fill="none" stroke="black" points="50,-0.5 50,-23.5 "/>
<text text-anchor="middle" x="60" y="-8.3" font-family="Times,serif" font-size="14.00"> </text>
</g>
<!-- node20&#45;&gt;node18 -->
<g id="edge2" class="edge">
<title>node20:left&#45;&gt;node18:center</title>
<path fill="none" stroke="black" d="M25,-60C25,-47.42 30.74,-42.77 33.52,-34.03"/>
<polygon fill="black" stroke="black" points="37.01,-34.4 35,-24 30.08,-33.38 37.01,-34.4"/>
</g>
<!-- node18&#45;&gt;node21 -->
<g id="edge3" class="edge">
<title>node18:right&#45;&gt;node21:center</title>
<path fill="none" stroke="black" d="M60,-24C60,-46.01 82.84,-41.03 94,-60 106.3,-80.91 111.56,-89.64 112.73,-109.83"/>
<polygon fill="black" stroke="black" points="109.24,-110.09 113,-120 116.24,-109.91 109.24,-110.09"/>
</g>
<!-- node17 -->
<g id="node5" class="node">
<title>node17</title>
<polygon fill="none" stroke="black" points="107,-0.5 107,-23.5 177,-23.5 177,-0.5 107,-0.5"/>
<text text-anchor="middle" x="117" y="-8.3" font-family="Times,serif" font-size="14.00"> </text>
<polyline fill="none" stroke="black" points="127,-0.5 127,-23.5 "/>
<text text-anchor="middle" x="142" y="-8.3" font-family="Times,serif" font-size="14.00">17</text>
<polyline fill="none" stroke="black" points="157,-0.5 157,-23.5 "/>
<text text-anchor="middle" x="167" y="-8.3" font-family="Times,serif" font-size="14.00"> </text>
</g>
<!-- node19&#45;&gt;node17 -->
<g id="edge5" class="edge">
<title>node19:left&#45;&gt;node17:center</title>
<path fill="none" stroke="black" d="M151,-60C151,-47.5 145.83,-42.74 143.33,-33.99"/>
<polygon fill="black" stroke="black" points="146.79,-33.45 142,-24 139.85,-34.37 146.79,-33.45"/>
</g>
<!-- node16 -->
<g id="node6" class="node">
<title>node16</title>
<polygon fill="none" stroke="black" points="195,-0.5 195,-23.5 265,-23.5 265,-0.5 195,-0.5"/>
<text text-anchor="middle" x="205" y="-8.3" font-family="Times,serif" font-size="14.00"> </text>
<polyline fill="none" stroke="black" points="215,-0.5 215,-23.5 "/>
<text text-anchor="middle" x="230" y="-8.3" font-family="Times,serif" font-size="14.00">16</text>
<polyline fill="none" stroke="black" points="245,-0.5 245,-23.5 "/>
<text text-anchor="middle" x="255" y="-8.3" font-family="Times,serif" font-size="14.00"> </text>
</g>
<!-- node19&#45;&gt;node16 -->
<g id="edge6" class="edge">
<title>node19:right&#45;&gt;node16:center</title>
<path fill="none" stroke="black" d="M201,-60C201,-43.63 219.42,-43.54 226.9,-33.78"/>
<polygon fill="black" stroke="black" points="230.31,-34.59 230,-24 223.64,-32.47 230.31,-34.59"/>
</g>
</g>
</svg>
