<?xml version="1.0" encoding="UTF-8" standalone="no"?>
<!DOCTYPE svg PUBLIC "-//W3C//DTD SVG 1.1//EN"
 "http://www.w3.org/Graphics/SVG/1.1/DTD/svg11.dtd">
<!-- Generated by graphviz version 2.43.0 (0)
 -->
<!-- Title: foogrph Pages: 1 -->
<svg width="254pt" height="212pt"
 viewBox="0.00 0.00 254.00 212.00" xmlns="http://www.w3.org/2000/svg" xmlns:xlink="http://www.w3.org/1999/xlink">
<g id="graph0" class="graph" transform="scale(1 1) rotate(0) translate(4 208)">
<title>foogrph</title>
<polygon fill="white" stroke="transparent" points="-4,4 -4,-208 250,-208 250,4 -4,4"/>
<!-- node27 -->
<g id="node1" class="node">
<title>node27</title>
<polygon fill="none" stroke="black" points="69,-180.5 69,-203.5 139,-203.5 139,-180.5 69,-180.5"/>
<text text-anchor="middle" x="79" y="-188.3" font-family="Times,serif" font-size="14.00"> </text>
<polyline fill="none" stroke="black" points="89,-180.5 89,-203.5 "/>
<text text-anchor="middle" x="104" y="-188.3" font-family="Times,serif" font-size="14.00">27</text>
<polyline fill="none" stroke="black" points="119,-180.5 119,-203.5 "/>
<text text-anchor="middle" x="129" y="-188.3" font-family="Times,serif" font-size="14.00"> </text>
</g>
<!-- node26 -->
<g id="node2" class="node">
<title>node26</title>
<polygon fill="none" stroke="black" points="25,-120.5 25,-143.5 95,-143.5 95,-120.5 25,-120.5"/>
<text text-anchor="middle" x="35" y="-128.3" font-family="Times,serif" font-size="14.00"> </text>
<polyline fill="none" stroke="black" points="45,-120.5 45,-143.5 "/>
<text text-anchor="middle" x="60" y="-128.3" font-family="Times,serif" font-size="14.00">26</text>
<polyline fill="none" stroke="black" points="75,-120.5 75,-143.5 "/>
<text text-anchor="middle" x="85" y="-128.3" font-family="Times,serif" font-size="14.00"> </text>
</g>
<!-- node27&#45;&gt;node26 -->
<g id="edge1" class="edge">
<title>node27:left&#45;&gt;node26:center</title>
<path fill="none" stroke="black" d="M79,-180C79,-166.01 67.63,-162.95 62.48,-153.91"/>
<polygon fill="black" stroke="black" points="65.83,-152.85 60,-144 59.04,-154.55 65.83,-152.85"/>
</g>
<!-- node25 -->
<g id="node5" class="node">
<title>node25</title>
<polygon fill="none" stroke="black" points="113,-120.5 113,-143.5 183,-143.5 183,-120.5 113,-120.5"/>
<text text-anchor="middle" x="123" y="-128.3" font-family="Times,serif" font-size="14.00"> </text>
<polyline fill="none" stroke="black" points="133,-120.5 133,-143.5 "/>
<text text-anchor="middle" x="148" y="-128.3" font-family="Times,serif" font-size="14.00">25</text>
<polyline fill="none" stroke="black" points="163,-120.5 163,-143.5 "/>
<text text-anchor="middle" x="173" y="-128.3" font-family="Times,serif" font-size="14.00"> </text>
</g>
<!-- node27&#45;&gt;node25 -->
<g id="edge4" class="edge">
<title>node27:right&#45;&gt;node25:center</title>
<path fill="none" stroke="black" d="M129,-180C129,-166.01 140.37,-162.95 145.52,-153.91"/>
<polygon fill="black" stroke="black" points="148.96,-154.55 148,-144 142.17,-152.85 148.96,-154.55"/>
</g>
<!-- node24 -->
<g id="node3" class="node">
<title>node24</title>
<polygon fill="none" stroke="black" points="0,-60.5 0,-83.5 70,-83.5 70,-60.5 0,-60.5"/>
<text text-anchor="middle" x="10" y="-68.3" font-family="Times,serif" font-size="14.00"> </text>
<polyline fill="none" stroke="black" points="20,-60.5 20,-83.5 "/>
<text text-anchor="middle" x="35" y="-68.3" font-family="Times,serif" font-size="14.00">24</text>
<polyline fill="none" stroke="black" points="50,-60.5 50,-83.5 "/>
<text text-anchor="middle" x="60" y="-68.3" font-family="Times,serif" font-size="14.00"> </text>
</g>
<!-- node26&#45;&gt;node24 -->
<g id="edge2" class="edge">
<title>node26:left&#45;&gt;node24:center</title>
<path fill="none" stroke="black" d="M35,-120C35,-108 35,-102.75 35,-94.12"/>
<polygon fill="black" stroke="black" points="38.5,-94 35,-84 31.5,-94 38.5,-94"/>
</g>
<!-- node21 -->
<g id="node4" class="node">
<title>node21</title>
<polygon fill="none" stroke="black" points="25,-0.5 25,-23.5 95,-23.5 95,-0.5 25,-0.5"/>
<text text-anchor="middle" x="35" y="-8.3" font-family="Times,serif" font-size="14.00"> </text>
<polyline fill="none" stroke="black" points="45,-0.5 45,-23.5 "/>
<text text-anchor="middle" x="60" y="-8.3" font-family="Times,serif" font-size="14.00">21</text>
<polyline fill="none" stroke="black" points="75,-0.5 75,-23.5 "/>
<text text-anchor="middle" x="85" y="-8.3" font-family="Times,serif" font-size="14.00"> </text>
</g>
<!-- node24&#45;&gt;node21 -->
<g id="edge3" class="edge">
<title>node24:right&#45;&gt;node21:center</title>
<path fill="none" stroke="black" d="M60,-60C60,-48 60,-42.75 60,-34.12"/>
<polygon fill="black" stroke="black" points="63.5,-34 60,-24 56.5,-34 63.5,-34"/>
</g>
<!-- node23 -->
<g id="node6" class="node">
<title>node23</title>
<polygon fill="none" stroke="black" points="88,-60.5 88,-83.5 158,-83.5 158,-60.5 88,-60.5"/>
<text text-anchor="middle" x="98" y="-68.3" font-family="Times,serif" font-size="14.00"> </text>
<polyline fill="none" stroke="black" points="108,-60.5 108,-83.5 "/>
<text text-anchor="middle" x="123" y="-68.3" font-family="Times,serif" font-size="14.00">23</text>
<polyline fill="none" stroke="black" points="138,-60.5 138,-83.5 "/>
<text text-anchor="middle" x="148" y="-68.3" font-family="Times,serif" font-size="14.00"> </text>
</g>
<!-- node25&#45;&gt;node23 -->
<g id="edge5" class="edge">
<title>node25:left&#45;&gt;node23:center</title>
<path fill="none" stroke="black" d="M123,-120C123,-108 123,-102.75 123,-94.12"/>
<polygon fill="black" stroke="black" points="126.5,-94 123,-84 119.5,-94 126.5,-94"/>
</g>
<!-- node22 -->
<g id="node7" class="node">
<title>node22</title>
<polygon fill="none" stroke="black" points="176,-60.5 176,-83.5 246,-83.5 246,-60.5 176,-60.5"/>
<text text-anchor="middle" x="186" y="-68.3" font-family="Times,serif" font-size="14.00"> </text>
<polyline fill="none" stroke="black" points="196,-60.5 196,-83.5 "/>
<text text-anchor="middle" x="211" y="-68.3" font-family="Times,serif" font-size="14.00">22</text>
<polyline fill="none" stroke="black" points="226,-60.5 226,-83.5 "/>
<text text-anchor="middle" x="236" y="-68.3" font-family="Times,serif" font-size="14.00"> </text>
</g>
<!-- node25&#45;&gt;node22 -->
<g id="edge6" class="edge">
<title>node25:right&#45;&gt;node22:center</title>
<path fill="none" stroke="black" d="M173,-120C173,-100.92 198.57,-104.57 207.76,-93.66"/>
<polygon fill="black" stroke="black" points="211.14,-94.59 211,-84 204.5,-92.37 211.14,-94.59"/>
</g>
</g>
</svg>
