<?xml version="1.0" encoding="UTF-8" standalone="yes"?>
<!DOCTYPE svg PUBLIC "-//W3C//DTD SVG 1.0//EN" "http://www.w3.org/TR/2001/REC-SVG-20010904/DTD/svg10.dtd">
<svg height="300" width="400" xmlns="http://www.w3.org/2000/svg" xmlns:svg="http://www.w3.org/2000/svg" xmlns:xlink="http://www.w3.org/1999/xlink">
	<g id="lines" stroke="#369" stroke-width="4">
		<line x1="0" x2="397" y1="49.7659" y2="243.7298" />
	</g>
	<g fill="#f73" id="points">
		<circle cx="382" cy="211" r="3" />
		<circle cx="396" cy="245" r="3" />
		<circle cx="6" cy="66" r="3" />
		<circle cx="349" cy="240" r="3" />
		<circle cx="119" cy="114" r="3" />
		<circle cx="383" cy="205" r="3" />
		<circle cx="397" cy="296" r="3" />
		<circle cx="83" cy="72" r="3" />
		<circle cx="371" cy="194" r="3" />
		<circle cx="317" cy="224" r="3" />
		<circle cx="157" cy="125" r="3" />
		<circle cx="332" cy="192" r="3" />
		<circle cx="144" cy="122" r="3" />
		<circle cx="128" cy="111" r="3" />
		<circle cx="123" cy="137" r="3" />
		<circle cx="180" cy="126" r="3" />
		<circle cx="396" cy="290" r="3" />
		<circle cx="388" cy="217" r="3" />
		<circle cx="292" cy="203" r="3" />
		<circle cx="239" cy="130" r="3" />
		<circle cx="324" cy="175" r="3" />
		<circle cx="362" cy="233" r="3" />
		<circle cx="93" cy="82" r="3" />
		<circle cx="336" cy="260" r="3" />
		<circle cx="301" cy="212" r="3" />
		<circle cx="156" cy="130" r="3" />
		<circle cx="129" cy="104" r="3" />
		<circle cx="259" cy="163" r="3" />
		<circle cx="288" cy="176" r="3" />
		<circle cx="51" cy="93" r="3" />
	</g>
</svg>
