<?xml version="1.0" encoding="UTF-8" standalone="no"?>
<!DOCTYPE svg PUBLIC "-//W3C//DTD SVG 1.1//EN"
 "http://www.w3.org/Graphics/SVG/1.1/DTD/svg11.dtd">
<!-- Generated by graphviz version 2.43.0 (0)
 -->
<!-- Title: foogrph Pages: 1 -->
<svg width="192pt" height="152pt"
 viewBox="0.00 0.00 192.00 152.00" xmlns="http://www.w3.org/2000/svg" xmlns:xlink="http://www.w3.org/1999/xlink">
<g id="graph0" class="graph" transform="scale(1 1) rotate(0) translate(4 148)">
<title>foogrph</title>
<polygon fill="white" stroke="transparent" points="-4,4 -4,-148 188,-148 188,4 -4,4"/>
<!-- node5 -->
<g id="node1" class="node">
<title>node5</title>
<polygon fill="none" stroke="black" points="80,-120.5 80,-143.5 143,-143.5 143,-120.5 80,-120.5"/>
<text text-anchor="middle" x="90" y="-128.3" font-family="Times,serif" font-size="14.00"> </text>
<polyline fill="none" stroke="black" points="100,-120.5 100,-143.5 "/>
<text text-anchor="middle" x="111.5" y="-128.3" font-family="Times,serif" font-size="14.00">5</text>
<polyline fill="none" stroke="black" points="123,-120.5 123,-143.5 "/>
<text text-anchor="middle" x="133" y="-128.3" font-family="Times,serif" font-size="14.00"> </text>
</g>
<!-- node4 -->
<g id="node2" class="node">
<title>node4</title>
<polygon fill="none" stroke="black" points="40,-60.5 40,-83.5 103,-83.5 103,-60.5 40,-60.5"/>
<text text-anchor="middle" x="50" y="-68.3" font-family="Times,serif" font-size="14.00"> </text>
<polyline fill="none" stroke="black" points="60,-60.5 60,-83.5 "/>
<text text-anchor="middle" x="71.5" y="-68.3" font-family="Times,serif" font-size="14.00">4</text>
<polyline fill="none" stroke="black" points="83,-60.5 83,-83.5 "/>
<text text-anchor="middle" x="93" y="-68.3" font-family="Times,serif" font-size="14.00"> </text>
</g>
<!-- node5&#45;&gt;node4 -->
<g id="edge1" class="edge">
<title>node5:left&#45;&gt;node4:center</title>
<path fill="none" stroke="black" d="M89.5,-120C89.5,-106.16 78.73,-102.9 73.85,-93.85"/>
<polygon fill="black" stroke="black" points="77.23,-92.91 71.5,-84 70.42,-94.54 77.23,-92.91"/>
</g>
<!-- node7 -->
<g id="node5" class="node">
<title>node7</title>
<polygon fill="none" stroke="black" points="121,-60.5 121,-83.5 184,-83.5 184,-60.5 121,-60.5"/>
<text text-anchor="middle" x="131" y="-68.3" font-family="Times,serif" font-size="14.00"> </text>
<polyline fill="none" stroke="black" points="141,-60.5 141,-83.5 "/>
<text text-anchor="middle" x="152.5" y="-68.3" font-family="Times,serif" font-size="14.00">7</text>
<polyline fill="none" stroke="black" points="164,-60.5 164,-83.5 "/>
<text text-anchor="middle" x="174" y="-68.3" font-family="Times,serif" font-size="14.00"> </text>
</g>
<!-- node5&#45;&gt;node7 -->
<g id="edge4" class="edge">
<title>node5:right&#45;&gt;node7:center</title>
<path fill="none" stroke="black" d="M133.5,-120C133.5,-106.01 144.87,-102.95 150.02,-93.91"/>
<polygon fill="black" stroke="black" points="153.46,-94.55 152.5,-84 146.67,-92.85 153.46,-94.55"/>
</g>
<!-- node3 -->
<g id="node3" class="node">
<title>node3</title>
<polygon fill="none" stroke="black" points="0,-0.5 0,-23.5 63,-23.5 63,-0.5 0,-0.5"/>
<text text-anchor="middle" x="10" y="-8.3" font-family="Times,serif" font-size="14.00"> </text>
<polyline fill="none" stroke="black" points="20,-0.5 20,-23.5 "/>
<text text-anchor="middle" x="31.5" y="-8.3" font-family="Times,serif" font-size="14.00">3</text>
<polyline fill="none" stroke="black" points="43,-0.5 43,-23.5 "/>
<text text-anchor="middle" x="53" y="-8.3" font-family="Times,serif" font-size="14.00"> </text>
</g>
<!-- node4&#45;&gt;node3 -->
<g id="edge2" class="edge">
<title>node4:left&#45;&gt;node3:center</title>
<path fill="none" stroke="black" d="M49.5,-60C49.5,-46.16 38.73,-42.9 33.85,-33.85"/>
<polygon fill="black" stroke="black" points="37.23,-32.91 31.5,-24 30.42,-34.54 37.23,-32.91"/>
</g>
<!-- node6 -->
<g id="node4" class="node">
<title>node6</title>
<polygon fill="none" stroke="black" points="81,-0.5 81,-23.5 144,-23.5 144,-0.5 81,-0.5"/>
<text text-anchor="middle" x="91" y="-8.3" font-family="Times,serif" font-size="14.00"> </text>
<polyline fill="none" stroke="black" points="101,-0.5 101,-23.5 "/>
<text text-anchor="middle" x="112.5" y="-8.3" font-family="Times,serif" font-size="14.00">6</text>
<polyline fill="none" stroke="black" points="124,-0.5 124,-23.5 "/>
<text text-anchor="middle" x="134" y="-8.3" font-family="Times,serif" font-size="14.00"> </text>
</g>
<!-- node4&#45;&gt;node6 -->
<g id="edge3" class="edge">
<title>node4:right&#45;&gt;node6:center</title>
<path fill="none" stroke="black" d="M93.5,-60C93.5,-46.01 104.87,-42.95 110.02,-33.91"/>
<polygon fill="black" stroke="black" points="113.46,-34.55 112.5,-24 106.67,-32.85 113.46,-34.55"/>
</g>
</g>
</svg>
