<?xml version="1.0" encoding="UTF-8" standalone="yes"?>
<!DOCTYPE svg PUBLIC "-//W3C//DTD SVG 1.0//EN" "http://www.w3.org/TR/2001/REC-SVG-20010904/DTD/svg10.dtd">
<svg height="500" width="500" xmlns="http://www.w3.org/2000/svg" xmlns:svg="http://www.w3.org/2000/svg" xmlns:xlink="http://www.w3.org/1999/xlink">
<circle cx="333" cy="129" r="1" stroke="black" />
<circle cx="39" cy="189" r="1" stroke="black" />
<circle cx="140" cy="156" r="1" stroke="black" />
<circle cx="292" cy="134" r="1" stroke="black" />
<circle cx="393" cy="52" r="1" stroke="black" />
<circle cx="160" cy="166" r="1" stroke="black" />
<circle cx="362" cy="122" r="1" stroke="black" />
<circle cx="13" cy="193" r="1" stroke="black" />
<circle cx="341" cy="104" r="1" stroke="black" />
<circle cx="320" cy="113" r="1" stroke="black" />
<circle cx="109" cy="177" r="1" stroke="black" />
<circle cx="203" cy="152" r="1" stroke="black" />
<circle cx="343" cy="100" r="1" stroke="black" />
<circle cx="225" cy="110" r="1" stroke="black" />
<circle cx="23" cy="186" r="1" stroke="black" />
<circle cx="282" cy="102" r="1" stroke="black" />
<circle cx="284" cy="98" r="1" stroke="black" />
<circle cx="205" cy="133" r="1" stroke="black" />
<circle cx="297" cy="114" r="1" stroke="black" />
<circle cx="292" cy="126" r="1" stroke="black" />
<circle cx="339" cy="112" r="1" stroke="black" />
<circle cx="327" cy="79" r="1" stroke="black" />
<circle cx="253" cy="136" r="1" stroke="black" />
<circle cx="61" cy="169" r="1" stroke="black" />
<circle cx="128" cy="176" r="1" stroke="black" />
<circle cx="346" cy="72" r="1" stroke="black" />
<circle cx="316" cy="103" r="1" stroke="black" />
<circle cx="124" cy="162" r="1" stroke="black" />
<circle cx="65" cy="181" r="1" stroke="black" />
<circle cx="159" cy="137" r="1" stroke="black" />
<circle cx="212" cy="116" r="1" stroke="black" />
<circle cx="337" cy="86" r="1" stroke="black" />
<circle cx="215" cy="136" r="1" stroke="black" />
<circle cx="153" cy="137" r="1" stroke="black" />
<circle cx="390" cy="104" r="1" stroke="black" />
<circle cx="100" cy="180" r="1" stroke="black" />
<circle cx="76" cy="188" r="1" stroke="black" />
<circle cx="77" cy="181" r="1" stroke="black" />
<circle cx="69" cy="195" r="1" stroke="black" />
<circle cx="92" cy="186" r="1" stroke="black" />
<circle cx="275" cy="96" r="1" stroke="black" />
<circle cx="250" cy="147" r="1" stroke="black" />
<circle cx="34" cy="174" r="1" stroke="black" />
<circle cx="213" cy="134" r="1" stroke="black" />
<circle cx="186" cy="129" r="1" stroke="black" />
<circle cx="189" cy="154" r="1" stroke="black" />
<circle cx="361" cy="82" r="1" stroke="black" />
<circle cx="363" cy="89" r="1" stroke="black" />
<line x1="0" y1="200" x2="500" y2="50" stroke="black" />
</svg>
