<?xml version="1.0" encoding="UTF-8" standalone="no"?>
<!DOCTYPE svg PUBLIC "-//W3C//DTD SVG 1.1//EN"
 "http://www.w3.org/Graphics/SVG/1.1/DTD/svg11.dtd">
<!-- Generated by graphviz version 2.40.1 (20161225.0304)
 -->
<!-- Title: foogrph Pages: 1 -->
<svg width="3354pt" height="1412pt"
 viewBox="0.00 0.00 3354.49 1412.00" xmlns="http://www.w3.org/2000/svg" xmlns:xlink="http://www.w3.org/1999/xlink">
<g id="graph0" class="graph" transform="scale(1 1) rotate(0) translate(4 1408)">
<title>foogrph</title>
<polygon fill="#ffffff" stroke="transparent" points="-4,4 -4,-1408 3350.4937,-1408 3350.4937,4 -4,4"/>
<!-- audino -->
<g id="node1" class="node">
<title>audino</title>
<ellipse fill="none" stroke="#000000" cx="1475.3466" cy="-18" rx="34.394" ry="18"/>
<text text-anchor="middle" x="1475.3466" y="-14.3" font-family="Times,serif" font-size="14.00" fill="#000000">audino</text>
</g>
<!-- bagon -->
<g id="node2" class="node">
<title>bagon</title>
<ellipse fill="none" stroke="#000000" cx="1246.3466" cy="-954" rx="32.4942" ry="18"/>
<text text-anchor="middle" x="1246.3466" y="-950.3" font-family="Times,serif" font-size="14.00" fill="#000000">bagon</text>
</g>
<!-- nosepass -->
<g id="node3" class="node">
<title>nosepass</title>
<ellipse fill="none" stroke="#000000" cx="1144.3466" cy="-882" rx="42.4939" ry="18"/>
<text text-anchor="middle" x="1144.3466" y="-878.3" font-family="Times,serif" font-size="14.00" fill="#000000">nosepass</text>
</g>
<!-- bagon&#45;&gt;nosepass -->
<g id="edge1" class="edge">
<title>bagon&#45;&gt;nosepass</title>
<path fill="none" stroke="#000000" d="M1226.1947,-939.7751C1211.4614,-929.3752 1191.2265,-915.0917 1174.5627,-903.329"/>
<polygon fill="#000000" stroke="#000000" points="1176.4104,-900.3491 1166.2223,-897.4417 1172.3736,-906.0679 1176.4104,-900.3491"/>
</g>
<!-- sableye -->
<g id="node29" class="node">
<title>sableye</title>
<ellipse fill="none" stroke="#000000" cx="1303.3466" cy="-378" rx="37.0935" ry="18"/>
<text text-anchor="middle" x="1303.3466" y="-374.3" font-family="Times,serif" font-size="14.00" fill="#000000">sableye</text>
</g>
<!-- nosepass&#45;&gt;sableye -->
<g id="edge90" class="edge">
<title>nosepass&#45;&gt;sableye</title>
<path fill="none" stroke="#000000" d="M1170.5025,-867.7114C1185.4271,-858.2857 1203.3058,-844.6202 1214.3466,-828 1273.8792,-738.3832 1276.3466,-701.5886 1276.3466,-594 1276.3466,-594 1276.3466,-594 1276.3466,-522 1276.3466,-480.9969 1287.0527,-434.534 1294.9816,-405.7459"/>
<polygon fill="#000000" stroke="#000000" points="1298.3893,-406.558 1297.7522,-395.9823 1291.6552,-404.647 1298.3893,-406.558"/>
</g>
<!-- scolipede -->
<g id="node30" class="node">
<title>scolipede</title>
<ellipse fill="none" stroke="#000000" cx="1402.3466" cy="-378" rx="44.393" ry="18"/>
<text text-anchor="middle" x="1402.3466" y="-374.3" font-family="Times,serif" font-size="14.00" fill="#000000">scolipede</text>
</g>
<!-- nosepass&#45;&gt;scolipede -->
<g id="edge91" class="edge">
<title>nosepass&#45;&gt;scolipede</title>
<path fill="none" stroke="#000000" d="M1177.9331,-870.8171C1227.4763,-851.9525 1314.3466,-808.7827 1314.3466,-738 1314.3466,-738 1314.3466,-738 1314.3466,-522 1314.3466,-480.6022 1316.172,-466.9581 1338.3466,-432 1346.3673,-419.3554 1358.2942,-408.1442 1369.6856,-399.2599"/>
<polygon fill="#000000" stroke="#000000" points="1371.8825,-401.988 1377.8222,-393.2147 1367.7078,-396.369 1371.8825,-401.988"/>
</g>
<!-- scrafty -->
<g id="node31" class="node">
<title>scrafty</title>
<ellipse fill="none" stroke="#000000" cx="698.3466" cy="-1098" rx="34.394" ry="18"/>
<text text-anchor="middle" x="698.3466" y="-1094.3" font-family="Times,serif" font-size="14.00" fill="#000000">scrafty</text>
</g>
<!-- nosepass&#45;&gt;scrafty -->
<g id="edge92" class="edge">
<title>nosepass&#45;&gt;scrafty</title>
<path fill="none" stroke="#000000" d="M1116.3216,-895.5726C1038.2526,-933.3819 818.4399,-1039.8382 732.9598,-1081.2367"/>
<polygon fill="#000000" stroke="#000000" points="731.4019,-1078.1022 723.9274,-1085.6111 734.4531,-1084.4023 731.4019,-1078.1022"/>
</g>
<!-- seaking -->
<g id="node32" class="node">
<title>seaking</title>
<ellipse fill="none" stroke="#000000" cx="1172.3466" cy="-378" rx="37.8943" ry="18"/>
<text text-anchor="middle" x="1172.3466" y="-374.3" font-family="Times,serif" font-size="14.00" fill="#000000">seaking</text>
</g>
<!-- nosepass&#45;&gt;seaking -->
<g id="edge93" class="edge">
<title>nosepass&#45;&gt;seaking</title>
<path fill="none" stroke="#000000" d="M1148.8346,-863.8014C1162.1232,-809.3039 1200.3466,-647.8653 1200.3466,-594 1200.3466,-594 1200.3466,-594 1200.3466,-522 1200.3466,-480.9444 1189.244,-434.4951 1181.0214,-405.7243"/>
<polygon fill="#000000" stroke="#000000" points="1184.3305,-404.5712 1178.1482,-395.9672 1177.6156,-406.5486 1184.3305,-404.5712"/>
</g>
<!-- sealeo -->
<g id="node33" class="node">
<title>sealeo</title>
<ellipse fill="none" stroke="#000000" cx="706.3466" cy="-378" rx="32.4942" ry="18"/>
<text text-anchor="middle" x="706.3466" y="-374.3" font-family="Times,serif" font-size="14.00" fill="#000000">sealeo</text>
</g>
<!-- nosepass&#45;&gt;sealeo -->
<g id="edge94" class="edge">
<title>nosepass&#45;&gt;sealeo</title>
<path fill="none" stroke="#000000" d="M1110.0486,-871.238C1083.4863,-862.0245 1046.4386,-847.2067 1017.3466,-828 850.5212,-717.8612 747.7739,-484.6007 716.5187,-405.1582"/>
<polygon fill="#000000" stroke="#000000" points="719.7803,-403.8886 712.9012,-395.8308 713.254,-406.4198 719.7803,-403.8886"/>
</g>
<!-- silcoon -->
<g id="node34" class="node">
<title>silcoon</title>
<ellipse fill="none" stroke="#000000" cx="793.3466" cy="-378" rx="36.2938" ry="18"/>
<text text-anchor="middle" x="793.3466" y="-374.3" font-family="Times,serif" font-size="14.00" fill="#000000">silcoon</text>
</g>
<!-- nosepass&#45;&gt;silcoon -->
<g id="edge95" class="edge">
<title>nosepass&#45;&gt;silcoon</title>
<path fill="none" stroke="#000000" d="M1117.2558,-868.0005C1068.7802,-838.822 967.6887,-767.2518 908.3466,-684 843.4885,-593.0098 805.5056,-463.162 795.0495,-406.394"/>
<polygon fill="#000000" stroke="#000000" points="798.4728,-405.6443 793.371,-396.3587 791.5687,-406.7991 798.4728,-405.6443"/>
</g>
<!-- simisear -->
<g id="node35" class="node">
<title>simisear</title>
<ellipse fill="none" stroke="#000000" cx="1648.3466" cy="-810" rx="40.0939" ry="18"/>
<text text-anchor="middle" x="1648.3466" y="-806.3" font-family="Times,serif" font-size="14.00" fill="#000000">simisear</text>
</g>
<!-- nosepass&#45;&gt;simisear -->
<g id="edge96" class="edge">
<title>nosepass&#45;&gt;simisear</title>
<path fill="none" stroke="#000000" d="M1184.7391,-876.2296C1276.5601,-863.1124 1500.6597,-831.0981 1599.8004,-816.9352"/>
<polygon fill="#000000" stroke="#000000" points="1600.4406,-820.3793 1609.8451,-815.5002 1599.4506,-813.4497 1600.4406,-820.3793"/>
</g>
<!-- snivy -->
<g id="node36" class="node">
<title>snivy</title>
<ellipse fill="none" stroke="#000000" cx="465.3466" cy="-378" rx="29.795" ry="18"/>
<text text-anchor="middle" x="465.3466" y="-374.3" font-family="Times,serif" font-size="14.00" fill="#000000">snivy</text>
</g>
<!-- nosepass&#45;&gt;snivy -->
<g id="edge97" class="edge">
<title>nosepass&#45;&gt;snivy</title>
<path fill="none" stroke="#000000" d="M1105.9575,-874.4781C986.3568,-850.2837 623.8288,-770.9596 546.3466,-684 474.2441,-603.078 465.1625,-465.222 464.793,-406.1865"/>
<polygon fill="#000000" stroke="#000000" points="468.2931,-406.1187 464.8122,-396.112 461.2931,-406.1053 468.2931,-406.1187"/>
</g>
<!-- snorlax -->
<g id="node37" class="node">
<title>snorlax</title>
<ellipse fill="none" stroke="#000000" cx="619.3466" cy="-378" rx="36.2938" ry="18"/>
<text text-anchor="middle" x="619.3466" y="-374.3" font-family="Times,serif" font-size="14.00" fill="#000000">snorlax</text>
</g>
<!-- nosepass&#45;&gt;snorlax -->
<g id="edge98" class="edge">
<title>nosepass&#45;&gt;snorlax</title>
<path fill="none" stroke="#000000" d="M1104.368,-875.736C1066.8607,-868.5365 1010.2688,-854.186 967.3466,-828 789.8777,-719.7298 668.9744,-485.265 631.6012,-405.3353"/>
<polygon fill="#000000" stroke="#000000" points="634.6368,-403.5606 627.2663,-395.9496 628.2819,-406.4957 634.6368,-403.5606"/>
</g>
<!-- spoink -->
<g id="node38" class="node">
<title>spoink</title>
<ellipse fill="none" stroke="#000000" cx="1499.3466" cy="-378" rx="34.394" ry="18"/>
<text text-anchor="middle" x="1499.3466" y="-374.3" font-family="Times,serif" font-size="14.00" fill="#000000">spoink</text>
</g>
<!-- nosepass&#45;&gt;spoink -->
<g id="edge99" class="edge">
<title>nosepass&#45;&gt;spoink</title>
<path fill="none" stroke="#000000" d="M1182.497,-873.9121C1242.5448,-858.692 1352.3466,-819.6922 1352.3466,-738 1352.3466,-738 1352.3466,-738 1352.3466,-522 1352.3466,-480.6022 1349.3981,-463.4254 1376.3466,-432 1379.4082,-428.4298 1427.4611,-407.9131 1462.5821,-393.2273"/>
<polygon fill="#000000" stroke="#000000" points="1464.2149,-396.3385 1472.097,-389.2587 1461.5202,-389.878 1464.2149,-396.3385"/>
</g>
<!-- starly -->
<g id="node39" class="node">
<title>starly</title>
<ellipse fill="none" stroke="#000000" cx="341.3466" cy="-378" rx="30.5947" ry="18"/>
<text text-anchor="middle" x="341.3466" y="-374.3" font-family="Times,serif" font-size="14.00" fill="#000000">starly</text>
</g>
<!-- nosepass&#45;&gt;starly -->
<g id="edge100" class="edge">
<title>nosepass&#45;&gt;starly</title>
<path fill="none" stroke="#000000" d="M1102.5728,-879.217C1032.9032,-873.8541 889.0201,-859.6949 771.3466,-828 688.5473,-805.6983 664.3675,-802.5412 592.3466,-756 456.1341,-667.977 376.6747,-477.0637 350.7804,-405.6764"/>
<polygon fill="#000000" stroke="#000000" points="354,-404.2841 347.3483,-396.0376 347.4056,-406.6323 354,-404.2841"/>
</g>
<!-- baltoy -->
<g id="node4" class="node">
<title>baltoy</title>
<ellipse fill="none" stroke="#000000" cx="500.3466" cy="-1098" rx="32.4942" ry="18"/>
<text text-anchor="middle" x="500.3466" y="-1094.3" font-family="Times,serif" font-size="14.00" fill="#000000">baltoy</text>
</g>
<!-- yamask -->
<g id="node5" class="node">
<title>yamask</title>
<ellipse fill="none" stroke="#000000" cx="446.3466" cy="-1026" rx="38.1938" ry="18"/>
<text text-anchor="middle" x="446.3466" y="-1022.3" font-family="Times,serif" font-size="14.00" fill="#000000">yamask</text>
</g>
<!-- baltoy&#45;&gt;yamask -->
<g id="edge2" class="edge">
<title>baltoy&#45;&gt;yamask</title>
<path fill="none" stroke="#000000" d="M487.8222,-1081.3008C481.1041,-1072.3433 472.6884,-1061.1223 465.1965,-1051.1331"/>
<polygon fill="#000000" stroke="#000000" points="467.9781,-1049.0086 459.1781,-1043.1086 462.3781,-1053.2087 467.9781,-1049.0086"/>
</g>
<!-- kangaskhan -->
<g id="node21" class="node">
<title>kangaskhan</title>
<ellipse fill="none" stroke="#000000" cx="1348.3466" cy="-954" rx="51.9908" ry="18"/>
<text text-anchor="middle" x="1348.3466" y="-950.3" font-family="Times,serif" font-size="14.00" fill="#000000">kangaskhan</text>
</g>
<!-- yamask&#45;&gt;kangaskhan -->
<g id="edge171" class="edge">
<title>yamask&#45;&gt;kangaskhan</title>
<path fill="none" stroke="#000000" d="M485.0661,-1024.6602C628.5785,-1019.5161 1129.9616,-999.913 1287.3466,-972 1291.7464,-971.2197 1296.2795,-970.2362 1300.7938,-969.1334"/>
<polygon fill="#000000" stroke="#000000" points="1301.8047,-972.4867 1310.5874,-966.5609 1300.0263,-965.7164 1301.8047,-972.4867"/>
</g>
<!-- kricketune -->
<g id="node22" class="node">
<title>kricketune</title>
<ellipse fill="none" stroke="#000000" cx="2507.3466" cy="-306" rx="48.1917" ry="18"/>
<text text-anchor="middle" x="2507.3466" y="-302.3" font-family="Times,serif" font-size="14.00" fill="#000000">kricketune</text>
</g>
<!-- yamask&#45;&gt;kricketune -->
<g id="edge172" class="edge">
<title>yamask&#45;&gt;kricketune</title>
<path fill="none" stroke="#000000" d="M423.277,-1011.4065C389.9659,-988.3322 332.3466,-940.0323 332.3466,-882 332.3466,-882 332.3466,-882 332.3466,-810 332.3466,-609.526 161.3353,-503.4805 301.3466,-360 320.6642,-340.2037 2101.8985,-312.1566 2449.0698,-306.8754"/>
<polygon fill="#000000" stroke="#000000" points="2449.2117,-310.3738 2459.1574,-306.7222 2449.1054,-303.3746 2449.2117,-310.3738"/>
</g>
<!-- banette -->
<g id="node6" class="node">
<title>banette</title>
<ellipse fill="none" stroke="#000000" cx="2791.3466" cy="-1386" rx="36.2938" ry="18"/>
<text text-anchor="middle" x="2791.3466" y="-1382.3" font-family="Times,serif" font-size="14.00" fill="#000000">banette</text>
</g>
<!-- emboar -->
<g id="node7" class="node">
<title>emboar</title>
<ellipse fill="none" stroke="#000000" cx="2564.3466" cy="-1314" rx="37.8943" ry="18"/>
<text text-anchor="middle" x="2564.3466" y="-1310.3" font-family="Times,serif" font-size="14.00" fill="#000000">emboar</text>
</g>
<!-- banette&#45;&gt;emboar -->
<g id="edge3" class="edge">
<title>banette&#45;&gt;emboar</title>
<path fill="none" stroke="#000000" d="M2760.2592,-1376.1397C2720.0713,-1363.3929 2649.9755,-1341.1598 2605.4312,-1327.0313"/>
<polygon fill="#000000" stroke="#000000" points="2606.3772,-1323.6595 2595.787,-1323.9723 2604.2608,-1330.3319 2606.3772,-1323.6595"/>
</g>
<!-- emolga -->
<g id="node8" class="node">
<title>emolga</title>
<ellipse fill="none" stroke="#000000" cx="1986.3466" cy="-90" rx="37.0935" ry="18"/>
<text text-anchor="middle" x="1986.3466" y="-86.3" font-family="Times,serif" font-size="14.00" fill="#000000">emolga</text>
</g>
<!-- banette&#45;&gt;emolga -->
<g id="edge4" class="edge">
<title>banette&#45;&gt;emolga</title>
<path fill="none" stroke="#000000" d="M2807.3369,-1369.6883C2838.9357,-1335.6471 2906.3466,-1253.268 2906.3466,-1170 2906.3466,-1170 2906.3466,-1170 2906.3466,-234 2906.3466,-95.2216 2743.9458,-168.4975 2607.3466,-144 2355.3116,-98.8004 2282.3556,-163.3185 2032.3466,-108 2029.3453,-107.3359 2026.2827,-106.5049 2023.2347,-105.5668"/>
<polygon fill="#000000" stroke="#000000" points="2024.2372,-102.2105 2013.6425,-102.2786 2021.9672,-108.8323 2024.2372,-102.2105"/>
</g>
<!-- exeggcute -->
<g id="node9" class="node">
<title>exeggcute</title>
<ellipse fill="none" stroke="#000000" cx="2445.3466" cy="-162" rx="46.2923" ry="18"/>
<text text-anchor="middle" x="2445.3466" y="-158.3" font-family="Times,serif" font-size="14.00" fill="#000000">exeggcute</text>
</g>
<!-- banette&#45;&gt;exeggcute -->
<g id="edge5" class="edge">
<title>banette&#45;&gt;exeggcute</title>
<path fill="none" stroke="#000000" d="M2799.4274,-1368.2344C2810.8508,-1341.4535 2830.3466,-1288.8802 2830.3466,-1242 2830.3466,-1242 2830.3466,-1242 2830.3466,-594 2830.3466,-386.4595 2579.6304,-232.5565 2482.8421,-180.8752"/>
<polygon fill="#000000" stroke="#000000" points="2484.4475,-177.7649 2473.9696,-176.1945 2481.1812,-183.9562 2484.4475,-177.7649"/>
</g>
<!-- registeel -->
<g id="node13" class="node">
<title>registeel</title>
<ellipse fill="none" stroke="#000000" cx="1618.3466" cy="-1242" rx="40.0939" ry="18"/>
<text text-anchor="middle" x="1618.3466" y="-1238.3" font-family="Times,serif" font-size="14.00" fill="#000000">registeel</text>
</g>
<!-- emboar&#45;&gt;registeel -->
<g id="edge17" class="edge">
<title>emboar&#45;&gt;registeel</title>
<path fill="none" stroke="#000000" d="M2526.6051,-1312.2978C2367.6565,-1305.0498 1757.0271,-1276.383 1672.3466,-1260 1667.9154,-1259.1427 1663.3466,-1258.0184 1658.8303,-1256.7496"/>
<polygon fill="#000000" stroke="#000000" points="1659.6868,-1253.3518 1649.1009,-1253.7889 1657.6488,-1260.0486 1659.6868,-1253.3518"/>
</g>
<!-- relicanth -->
<g id="node14" class="node">
<title>relicanth</title>
<ellipse fill="none" stroke="#000000" cx="1782.3466" cy="-522" rx="41.6928" ry="18"/>
<text text-anchor="middle" x="1782.3466" y="-518.3" font-family="Times,serif" font-size="14.00" fill="#000000">relicanth</text>
</g>
<!-- emboar&#45;&gt;relicanth -->
<g id="edge18" class="edge">
<title>emboar&#45;&gt;relicanth</title>
<path fill="none" stroke="#000000" d="M2548.5993,-1297.3378C2526.3385,-1271.9644 2488.3466,-1221.1655 2488.3466,-1170 2488.3466,-1170 2488.3466,-1170 2488.3466,-738 2488.3466,-690.6526 2470.4316,-674.7234 2431.3466,-648 2362.5596,-600.9686 2145.1511,-591.8628 2063.3466,-576 1981.6244,-560.1532 1886.4899,-541.9151 1830.5167,-531.206"/>
<polygon fill="#000000" stroke="#000000" points="1831.0126,-527.7375 1820.5331,-529.2963 1829.6974,-534.6128 1831.0126,-527.7375"/>
</g>
<!-- remoraid -->
<g id="node15" class="node">
<title>remoraid</title>
<ellipse fill="none" stroke="#000000" cx="2128.3466" cy="-522" rx="42.7926" ry="18"/>
<text text-anchor="middle" x="2128.3466" y="-518.3" font-family="Times,serif" font-size="14.00" fill="#000000">remoraid</text>
</g>
<!-- emboar&#45;&gt;remoraid -->
<g id="edge19" class="edge">
<title>emboar&#45;&gt;remoraid</title>
<path fill="none" stroke="#000000" d="M2556.473,-1296.2135C2545.3425,-1269.4059 2526.3466,-1216.799 2526.3466,-1170 2526.3466,-1170 2526.3466,-1170 2526.3466,-738 2526.3466,-696.6022 2529.9573,-678.8452 2502.3466,-648 2458.1899,-598.6706 2267.5663,-552.0143 2176.7766,-532.107"/>
<polygon fill="#000000" stroke="#000000" points="2177.5153,-528.6859 2167.0001,-529.9822 2176.0287,-535.5262 2177.5153,-528.6859"/>
</g>
<!-- rufflet -->
<g id="node16" class="node">
<title>rufflet</title>
<ellipse fill="none" stroke="#000000" cx="2028.3466" cy="-738" rx="32.4942" ry="18"/>
<text text-anchor="middle" x="2028.3466" y="-734.3" font-family="Times,serif" font-size="14.00" fill="#000000">rufflet</text>
</g>
<!-- emboar&#45;&gt;rufflet -->
<g id="edge20" class="edge">
<title>emboar&#45;&gt;rufflet</title>
<path fill="none" stroke="#000000" d="M2531.1863,-1305.1177C2503.8228,-1296.6509 2464.9794,-1281.9161 2436.3466,-1260 2336.5813,-1183.6379 2109.986,-857.4923 2045.6637,-763.465"/>
<polygon fill="#000000" stroke="#000000" points="2048.4853,-761.3904 2039.9553,-755.1064 2042.7047,-765.3382 2048.4853,-761.3904"/>
</g>
<!-- emolga&#45;&gt;audino -->
<g id="edge21" class="edge">
<title>emolga&#45;&gt;audino</title>
<path fill="none" stroke="#000000" d="M1950.4141,-84.9371C1859.029,-72.0609 1617.9913,-38.0987 1518.8671,-24.132"/>
<polygon fill="#000000" stroke="#000000" points="1519.2799,-20.6557 1508.8894,-22.7262 1518.3032,-27.5873 1519.2799,-20.6557"/>
</g>
<!-- exeggcute&#45;&gt;emboar -->
<g id="edge22" class="edge">
<title>exeggcute&#45;&gt;emboar</title>
<path fill="none" stroke="#000000" d="M2488.0673,-168.8477C2541.4091,-178.0989 2628.7705,-195.7785 2654.3466,-216 2794.6397,-326.9217 2792.3466,-415.1543 2792.3466,-594 2792.3466,-1170 2792.3466,-1170 2792.3466,-1170 2792.3466,-1255.3884 2676.6172,-1292.1991 2610.0612,-1306.3086"/>
<polygon fill="#000000" stroke="#000000" points="2609.3264,-1302.8863 2600.2224,-1308.3056 2610.7188,-1309.7464 2609.3264,-1302.8863"/>
</g>
<!-- exeggcute&#45;&gt;emolga -->
<g id="edge23" class="edge">
<title>exeggcute&#45;&gt;emolga</title>
<path fill="none" stroke="#000000" d="M2399.4367,-159.6418C2322.462,-154.8824 2162.9652,-141.5612 2032.3466,-108 2029.5433,-107.2797 2026.6797,-106.4365 2023.8203,-105.5153"/>
<polygon fill="#000000" stroke="#000000" points="2024.8039,-102.1514 2014.209,-102.148 2022.4893,-108.7577 2024.8039,-102.1514"/>
</g>
<!-- bidoof -->
<g id="node10" class="node">
<title>bidoof</title>
<ellipse fill="none" stroke="#000000" cx="3126.3466" cy="-1386" rx="33.5952" ry="18"/>
<text text-anchor="middle" x="3126.3466" y="-1382.3" font-family="Times,serif" font-size="14.00" fill="#000000">bidoof</text>
</g>
<!-- braviary -->
<g id="node11" class="node">
<title>braviary</title>
<ellipse fill="none" stroke="#000000" cx="409.3466" cy="-1098" rx="40.0939" ry="18"/>
<text text-anchor="middle" x="409.3466" y="-1094.3" font-family="Times,serif" font-size="14.00" fill="#000000">braviary</text>
</g>
<!-- braviary&#45;&gt;yamask -->
<g id="edge6" class="edge">
<title>braviary&#45;&gt;yamask</title>
<path fill="none" stroke="#000000" d="M418.4927,-1080.2022C422.7492,-1071.9192 427.9024,-1061.8915 432.613,-1052.7248"/>
<polygon fill="#000000" stroke="#000000" points="435.848,-1054.0871 437.3057,-1043.593 429.622,-1050.8876 435.848,-1054.0871"/>
</g>
<!-- bronzor -->
<g id="node12" class="node">
<title>bronzor</title>
<ellipse fill="none" stroke="#000000" cx="2052.3466" cy="-1314" rx="38.1938" ry="18"/>
<text text-anchor="middle" x="2052.3466" y="-1310.3" font-family="Times,serif" font-size="14.00" fill="#000000">bronzor</text>
</g>
<!-- bronzor&#45;&gt;registeel -->
<g id="edge7" class="edge">
<title>bronzor&#45;&gt;registeel</title>
<path fill="none" stroke="#000000" d="M2023.7757,-1301.9522C2017.4679,-1299.6698 2010.754,-1297.5232 2004.3466,-1296 1859.9501,-1261.6736 1817.3537,-1291.6479 1672.3466,-1260 1667.9929,-1259.0498 1663.4974,-1257.8758 1659.0453,-1256.5864"/>
<polygon fill="#000000" stroke="#000000" points="1660.0272,-1253.2267 1649.4398,-1253.6214 1657.9625,-1259.9153 1660.0272,-1253.2267"/>
</g>
<!-- bronzor&#45;&gt;relicanth -->
<g id="edge8" class="edge">
<title>bronzor&#45;&gt;relicanth</title>
<path fill="none" stroke="#000000" d="M2041.6448,-1296.5439C2015.8476,-1252.7472 1952.3466,-1133.9738 1952.3466,-1026 1952.3466,-1026 1952.3466,-1026 1952.3466,-954 1952.3466,-804.399 1798.4015,-826.008 1751.3466,-684 1736.0828,-637.9351 1754.6129,-581.8662 1768.8837,-549.2252"/>
<polygon fill="#000000" stroke="#000000" points="1772.178,-550.436 1773.1337,-539.8843 1765.8065,-547.537 1772.178,-550.436"/>
</g>
<!-- bronzor&#45;&gt;remoraid -->
<g id="edge9" class="edge">
<title>bronzor&#45;&gt;remoraid</title>
<path fill="none" stroke="#000000" d="M2065.7023,-1296.6523C2116.4349,-1230.4463 2294.3466,-995.3257 2294.3466,-954 2294.3466,-954 2294.3466,-954 2294.3466,-882 2294.3466,-741.8681 2314.683,-677.7655 2218.3466,-576 2204.1834,-561.0386 2184.9756,-548.7597 2167.9417,-539.712"/>
<polygon fill="#000000" stroke="#000000" points="2169.2462,-536.4484 2158.7479,-535.0215 2166.065,-542.6838 2169.2462,-536.4484"/>
</g>
<!-- bronzor&#45;&gt;rufflet -->
<g id="edge10" class="edge">
<title>bronzor&#45;&gt;rufflet</title>
<path fill="none" stroke="#000000" d="M2049.7782,-1295.8482C2043.5868,-1250.4639 2028.3466,-1128.3536 2028.3466,-1026 2028.3466,-1026 2028.3466,-1026 2028.3466,-882 2028.3466,-841.876 2028.3466,-795.4631 2028.3466,-766.4177"/>
<polygon fill="#000000" stroke="#000000" points="2031.8467,-766.1853 2028.3466,-756.1854 2024.8467,-766.1854 2031.8467,-766.1853"/>
</g>
<!-- landorus -->
<g id="node49" class="node">
<title>landorus</title>
<ellipse fill="none" stroke="#000000" cx="729.3466" cy="-1170" rx="40.8928" ry="18"/>
<text text-anchor="middle" x="729.3466" y="-1166.3" font-family="Times,serif" font-size="14.00" fill="#000000">landorus</text>
</g>
<!-- registeel&#45;&gt;landorus -->
<g id="edge114" class="edge">
<title>registeel&#45;&gt;landorus</title>
<path fill="none" stroke="#000000" d="M1578.4211,-1238.7664C1434.1138,-1227.079 939.6809,-1187.035 779.7154,-1174.0794"/>
<polygon fill="#000000" stroke="#000000" points="779.9196,-1170.5845 769.6697,-1173.2658 779.3545,-1177.5617 779.9196,-1170.5845"/>
</g>
<!-- ledyba -->
<g id="node50" class="node">
<title>ledyba</title>
<ellipse fill="none" stroke="#000000" cx="636.3466" cy="-1170" rx="34.394" ry="18"/>
<text text-anchor="middle" x="636.3466" y="-1166.3" font-family="Times,serif" font-size="14.00" fill="#000000">ledyba</text>
</g>
<!-- registeel&#45;&gt;ledyba -->
<g id="edge115" class="edge">
<title>registeel&#45;&gt;ledyba</title>
<path fill="none" stroke="#000000" d="M1578.1587,-1239.8739C1401.4878,-1230.5042 701.5838,-1193.135 679.3466,-1188 676.7025,-1187.3894 674.0134,-1186.63 671.3363,-1185.7712"/>
<polygon fill="#000000" stroke="#000000" points="672.3912,-1182.4307 661.797,-1182.3143 670.0062,-1189.0119 672.3912,-1182.4307"/>
</g>
<!-- loudred -->
<g id="node51" class="node">
<title>loudred</title>
<ellipse fill="none" stroke="#000000" cx="1390.3466" cy="-1170" rx="37.8943" ry="18"/>
<text text-anchor="middle" x="1390.3466" y="-1166.3" font-family="Times,serif" font-size="14.00" fill="#000000">loudred</text>
</g>
<!-- registeel&#45;&gt;loudred -->
<g id="edge116" class="edge">
<title>registeel&#45;&gt;loudred</title>
<path fill="none" stroke="#000000" d="M1585.1934,-1231.5306C1544.5463,-1218.6947 1475.6474,-1196.9371 1431.6114,-1183.031"/>
<polygon fill="#000000" stroke="#000000" points="1432.6594,-1179.6916 1422.0696,-1180.0178 1430.5515,-1186.3667 1432.6594,-1179.6916"/>
</g>
<!-- lumineon -->
<g id="node52" class="node">
<title>lumineon</title>
<ellipse fill="none" stroke="#000000" cx="1177.3466" cy="-1170" rx="44.393" ry="18"/>
<text text-anchor="middle" x="1177.3466" y="-1166.3" font-family="Times,serif" font-size="14.00" fill="#000000">lumineon</text>
</g>
<!-- registeel&#45;&gt;lumineon -->
<g id="edge117" class="edge">
<title>registeel&#45;&gt;lumineon</title>
<path fill="none" stroke="#000000" d="M1580.3655,-1235.799C1501.103,-1222.8582 1318.0287,-1192.9685 1228.5049,-1178.3524"/>
<polygon fill="#000000" stroke="#000000" points="1229.0158,-1174.8895 1218.5825,-1176.7324 1227.8878,-1181.7981 1229.0158,-1174.8895"/>
</g>
<!-- lunatone -->
<g id="node53" class="node">
<title>lunatone</title>
<ellipse fill="none" stroke="#000000" cx="1552.3466" cy="-1170" rx="40.8928" ry="18"/>
<text text-anchor="middle" x="1552.3466" y="-1166.3" font-family="Times,serif" font-size="14.00" fill="#000000">lunatone</text>
</g>
<!-- registeel&#45;&gt;lunatone -->
<g id="edge118" class="edge">
<title>registeel&#45;&gt;lunatone</title>
<path fill="none" stroke="#000000" d="M1603.039,-1225.3008C1594.6637,-1216.1641 1584.1298,-1204.6726 1574.8373,-1194.5353"/>
<polygon fill="#000000" stroke="#000000" points="1577.3668,-1192.1152 1568.0295,-1187.1086 1572.2067,-1196.8453 1577.3668,-1192.1152"/>
</g>
<!-- haxorus -->
<g id="node28" class="node">
<title>haxorus</title>
<ellipse fill="none" stroke="#000000" cx="896.3466" cy="-450" rx="38.1938" ry="18"/>
<text text-anchor="middle" x="896.3466" y="-446.3" font-family="Times,serif" font-size="14.00" fill="#000000">haxorus</text>
</g>
<!-- relicanth&#45;&gt;haxorus -->
<g id="edge119" class="edge">
<title>relicanth&#45;&gt;haxorus</title>
<path fill="none" stroke="#000000" d="M1743.252,-515.6646C1718.1867,-511.7997 1684.9203,-507.0351 1655.3466,-504 1405.4822,-478.3572 1341.7617,-487.5457 1091.3466,-468 1041.0966,-464.0778 983.6504,-458.6618 944.195,-454.7975"/>
<polygon fill="#000000" stroke="#000000" points="944.3613,-451.297 934.0666,-453.8008 943.6758,-458.2634 944.3613,-451.297"/>
</g>
<!-- heatmor -->
<g id="node40" class="node">
<title>heatmor</title>
<ellipse fill="none" stroke="#000000" cx="1838.3466" cy="-594" rx="40.0939" ry="18"/>
<text text-anchor="middle" x="1838.3466" y="-590.3" font-family="Times,serif" font-size="14.00" fill="#000000">heatmor</text>
</g>
<!-- relicanth&#45;&gt;heatmor -->
<g id="edge120" class="edge">
<title>relicanth&#45;&gt;heatmor</title>
<path fill="none" stroke="#000000" d="M1801.0528,-538.6058C1808.7766,-547.3072 1817.462,-558.1636 1824.6038,-567.9539"/>
<polygon fill="#000000" stroke="#000000" points="1821.7966,-570.0464 1830.4196,-576.2022 1827.5175,-566.0126 1821.7966,-570.0464"/>
</g>
<!-- heatran -->
<g id="node41" class="node">
<title>heatran</title>
<ellipse fill="none" stroke="#000000" cx="1136.3466" cy="-450" rx="36.2938" ry="18"/>
<text text-anchor="middle" x="1136.3466" y="-446.3" font-family="Times,serif" font-size="14.00" fill="#000000">heatran</text>
</g>
<!-- relicanth&#45;&gt;heatran -->
<g id="edge121" class="edge">
<title>relicanth&#45;&gt;heatran</title>
<path fill="none" stroke="#000000" d="M1742.9241,-516.0281C1717.8739,-512.3286 1684.7433,-507.6113 1655.3466,-504 1481.0689,-482.5906 1273.1777,-462.6453 1182.477,-454.2199"/>
<polygon fill="#000000" stroke="#000000" points="1182.5442,-450.7112 1172.264,-453.2739 1181.8985,-457.6814 1182.5442,-450.7112"/>
</g>
<!-- darmanitan -->
<g id="node23" class="node">
<title>darmanitan</title>
<ellipse fill="none" stroke="#000000" cx="1573.3466" cy="-450" rx="50.8918" ry="18"/>
<text text-anchor="middle" x="1573.3466" y="-446.3" font-family="Times,serif" font-size="14.00" fill="#000000">darmanitan</text>
</g>
<!-- remoraid&#45;&gt;darmanitan -->
<g id="edge122" class="edge">
<title>remoraid&#45;&gt;darmanitan</title>
<path fill="none" stroke="#000000" d="M2086.916,-517.2118C2009.5168,-508.1879 1837.7295,-487.7872 1693.3466,-468 1672.6351,-465.1616 1649.9493,-461.819 1629.932,-458.7896"/>
<polygon fill="#000000" stroke="#000000" points="1630.4497,-455.3282 1620.0371,-457.285 1629.3972,-462.2486 1630.4497,-455.3282"/>
</g>
<!-- deino -->
<g id="node24" class="node">
<title>deino</title>
<ellipse fill="none" stroke="#000000" cx="1733.3466" cy="-450" rx="30.5947" ry="18"/>
<text text-anchor="middle" x="1733.3466" y="-446.3" font-family="Times,serif" font-size="14.00" fill="#000000">deino</text>
</g>
<!-- remoraid&#45;&gt;deino -->
<g id="edge123" class="edge">
<title>remoraid&#45;&gt;deino</title>
<path fill="none" stroke="#000000" d="M2088.664,-514.7667C2012.8965,-500.9559 1848.4529,-470.9814 1772.8363,-457.1981"/>
<polygon fill="#000000" stroke="#000000" points="1773.24,-453.7141 1762.7744,-455.3641 1771.9847,-460.6006 1773.24,-453.7141"/>
</g>
<!-- tirtouga -->
<g id="node44" class="node">
<title>tirtouga</title>
<ellipse fill="none" stroke="#000000" cx="2062.3466" cy="-666" rx="38.1938" ry="18"/>
<text text-anchor="middle" x="2062.3466" y="-662.3" font-family="Times,serif" font-size="14.00" fill="#000000">tirtouga</text>
</g>
<!-- rufflet&#45;&gt;tirtouga -->
<g id="edge124" class="edge">
<title>rufflet&#45;&gt;tirtouga</title>
<path fill="none" stroke="#000000" d="M2036.577,-720.5708C2040.4862,-712.2927 2045.2472,-702.2104 2049.6083,-692.9752"/>
<polygon fill="#000000" stroke="#000000" points="2052.8505,-694.3059 2053.9557,-683.7689 2046.5207,-691.3168 2052.8505,-694.3059"/>
</g>
<!-- trapinch -->
<g id="node45" class="node">
<title>trapinch</title>
<ellipse fill="none" stroke="#000000" cx="1800.3466" cy="-666" rx="39.7935" ry="18"/>
<text text-anchor="middle" x="1800.3466" y="-662.3" font-family="Times,serif" font-size="14.00" fill="#000000">trapinch</text>
</g>
<!-- rufflet&#45;&gt;trapinch -->
<g id="edge125" class="edge">
<title>rufflet&#45;&gt;trapinch</title>
<path fill="none" stroke="#000000" d="M1999.9312,-729.0267C1960.4504,-716.5591 1888.6958,-693.8997 1842.8367,-679.4179"/>
<polygon fill="#000000" stroke="#000000" points="1843.773,-676.0433 1833.1831,-676.3694 1841.665,-682.7184 1843.773,-676.0433"/>
</g>
<!-- treecko -->
<g id="node46" class="node">
<title>treecko</title>
<ellipse fill="none" stroke="#000000" cx="1932.3466" cy="-666" rx="36.2938" ry="18"/>
<text text-anchor="middle" x="1932.3466" y="-662.3" font-family="Times,serif" font-size="14.00" fill="#000000">treecko</text>
</g>
<!-- rufflet&#45;&gt;treecko -->
<g id="edge126" class="edge">
<title>rufflet&#45;&gt;treecko</title>
<path fill="none" stroke="#000000" d="M2008.9196,-723.4297C1995.0513,-713.0286 1976.1799,-698.875 1960.6419,-687.2215"/>
<polygon fill="#000000" stroke="#000000" points="1962.5056,-684.2443 1952.4056,-681.0442 1958.3056,-689.8443 1962.5056,-684.2443"/>
</g>
<!-- tyrogue -->
<g id="node47" class="node">
<title>tyrogue</title>
<ellipse fill="none" stroke="#000000" cx="2384.3466" cy="-666" rx="37.8943" ry="18"/>
<text text-anchor="middle" x="2384.3466" y="-662.3" font-family="Times,serif" font-size="14.00" fill="#000000">tyrogue</text>
</g>
<!-- rufflet&#45;&gt;tyrogue -->
<g id="edge127" class="edge">
<title>rufflet&#45;&gt;tyrogue</title>
<path fill="none" stroke="#000000" d="M2059.0071,-731.799C2121.9898,-719.0609 2266.1701,-689.9009 2339.5972,-675.0504"/>
<polygon fill="#000000" stroke="#000000" points="2340.365,-678.4661 2349.4727,-673.0531 2338.9773,-671.605 2340.365,-678.4661"/>
</g>
<!-- carracosta -->
<g id="node17" class="node">
<title>carracosta</title>
<ellipse fill="none" stroke="#000000" cx="2087.3466" cy="-90" rx="46.2923" ry="18"/>
<text text-anchor="middle" x="2087.3466" y="-86.3" font-family="Times,serif" font-size="14.00" fill="#000000">carracosta</text>
</g>
<!-- carracosta&#45;&gt;audino -->
<g id="edge11" class="edge">
<title>carracosta&#45;&gt;audino</title>
<path fill="none" stroke="#000000" d="M2053.6301,-77.6767C2046.6681,-75.4981 2039.3284,-73.4624 2032.3466,-72 1844.6821,-32.6935 1615.3383,-21.8983 1520.105,-19.015"/>
<polygon fill="#000000" stroke="#000000" points="1520.0661,-15.5125 1509.9695,-18.723 1519.8645,-22.5096 1520.0661,-15.5125"/>
</g>
<!-- charmeleon -->
<g id="node18" class="node">
<title>charmeleon</title>
<ellipse fill="none" stroke="#000000" cx="1144.3466" cy="-954" rx="51.9908" ry="18"/>
<text text-anchor="middle" x="1144.3466" y="-950.3" font-family="Times,serif" font-size="14.00" fill="#000000">charmeleon</text>
</g>
<!-- charmeleon&#45;&gt;nosepass -->
<g id="edge12" class="edge">
<title>charmeleon&#45;&gt;nosepass</title>
<path fill="none" stroke="#000000" d="M1144.3466,-935.8314C1144.3466,-928.131 1144.3466,-918.9743 1144.3466,-910.4166"/>
<polygon fill="#000000" stroke="#000000" points="1147.8467,-910.4132 1144.3466,-900.4133 1140.8467,-910.4133 1147.8467,-910.4132"/>
</g>
<!-- cresselia -->
<g id="node19" class="node">
<title>cresselia</title>
<ellipse fill="none" stroke="#000000" cx="2192.3466" cy="-90" rx="40.8928" ry="18"/>
<text text-anchor="middle" x="2192.3466" y="-86.3" font-family="Times,serif" font-size="14.00" fill="#000000">cresselia</text>
</g>
<!-- cresselia&#45;&gt;audino -->
<g id="edge13" class="edge">
<title>cresselia&#45;&gt;audino</title>
<path fill="none" stroke="#000000" d="M2162.316,-77.7405C2155.8232,-75.5007 2148.9291,-73.4248 2142.3466,-72 2022.9301,-46.1513 1649.4716,-26.3247 1520.0423,-20.0741"/>
<polygon fill="#000000" stroke="#000000" points="1519.8723,-16.562 1509.7162,-19.5793 1519.5372,-23.554 1519.8723,-16.562"/>
</g>
<!-- croagunk -->
<g id="node20" class="node">
<title>croagunk</title>
<ellipse fill="none" stroke="#000000" cx="1576.3466" cy="-1026" rx="43.5923" ry="18"/>
<text text-anchor="middle" x="1576.3466" y="-1022.3" font-family="Times,serif" font-size="14.00" fill="#000000">croagunk</text>
</g>
<!-- croagunk&#45;&gt;kangaskhan -->
<g id="edge14" class="edge">
<title>croagunk&#45;&gt;kangaskhan</title>
<path fill="none" stroke="#000000" d="M1541.7183,-1015.0647C1503.1172,-1002.8749 1440.4129,-983.0736 1396.9184,-969.3385"/>
<polygon fill="#000000" stroke="#000000" points="1397.7144,-965.9195 1387.1246,-966.2457 1395.6064,-972.5946 1397.7144,-965.9195"/>
</g>
<!-- croagunk&#45;&gt;kricketune -->
<g id="edge15" class="edge">
<title>croagunk&#45;&gt;kricketune</title>
<path fill="none" stroke="#000000" d="M1619.1687,-1022.7273C1759.9402,-1009.5454 2211.9129,-947.5277 2431.3466,-684 2518.3544,-579.5085 2515.1343,-402.8451 2510.0937,-334.335"/>
<polygon fill="#000000" stroke="#000000" points="2513.5766,-333.9814 2509.2826,-324.2958 2506.5993,-334.5452 2513.5766,-333.9814"/>
</g>
<!-- kangaskhan&#45;&gt;nosepass -->
<g id="edge54" class="edge">
<title>kangaskhan&#45;&gt;nosepass</title>
<path fill="none" stroke="#000000" d="M1311.8755,-941.1278C1276.7375,-928.7262 1223.6073,-909.9744 1186.6339,-896.9249"/>
<polygon fill="#000000" stroke="#000000" points="1187.7281,-893.5996 1177.1333,-893.5718 1185.3984,-900.2005 1187.7281,-893.5996"/>
</g>
<!-- kricketune&#45;&gt;emboar -->
<g id="edge55" class="edge">
<title>kricketune&#45;&gt;emboar</title>
<path fill="none" stroke="#000000" d="M2525.894,-322.6742C2577.0441,-370.5922 2716.3466,-514.9575 2716.3466,-666 2716.3466,-1170 2716.3466,-1170 2716.3466,-1170 2716.3466,-1213.7727 2706.8146,-1228.5715 2676.3466,-1260 2657.349,-1279.5965 2629.7965,-1293.0082 2606.7738,-1301.564"/>
<polygon fill="#000000" stroke="#000000" points="2605.486,-1298.3069 2597.2224,-1304.9374 2607.8172,-1304.9074 2605.486,-1298.3069"/>
</g>
<!-- kricketune&#45;&gt;emolga -->
<g id="edge56" class="edge">
<title>kricketune&#45;&gt;emolga</title>
<path fill="none" stroke="#000000" d="M2513.2976,-287.973C2523.0702,-254.5529 2537.9188,-182.8558 2500.3466,-144 2464.0929,-106.5077 2083.187,-119.6297 2032.3466,-108 2029.3501,-107.3146 2026.291,-106.4682 2023.2454,-105.5194"/>
<polygon fill="#000000" stroke="#000000" points="2024.2523,-102.1644 2013.6576,-102.2117 2021.9694,-108.7817 2024.2523,-102.1644"/>
</g>
<!-- kricketune&#45;&gt;exeggcute -->
<g id="edge57" class="edge">
<title>kricketune&#45;&gt;exeggcute</title>
<path fill="none" stroke="#000000" d="M2499.6196,-288.0535C2488.9918,-263.3696 2469.7639,-218.7111 2457.2802,-189.7167"/>
<polygon fill="#000000" stroke="#000000" points="2460.3403,-187.9734 2453.171,-180.1727 2453.9109,-190.7417 2460.3403,-187.9734"/>
</g>
<!-- darmanitan&#45;&gt;nosepass -->
<g id="edge16" class="edge">
<title>darmanitan&#45;&gt;nosepass</title>
<path fill="none" stroke="#000000" d="M1558.7135,-467.3451C1538.4591,-493.1809 1504.3466,-544.1007 1504.3466,-594 1504.3466,-666 1504.3466,-666 1504.3466,-666 1504.3466,-760.5821 1446.8852,-778.4085 1366.3466,-828 1314.1113,-860.1638 1243.969,-873.1739 1196.6185,-878.434"/>
<polygon fill="#000000" stroke="#000000" points="1196.167,-874.962 1186.5797,-879.4713 1196.8864,-881.9249 1196.167,-874.962"/>
</g>
<!-- gabite -->
<g id="node25" class="node">
<title>gabite</title>
<ellipse fill="none" stroke="#000000" cx="1271.3466" cy="-234" rx="32.4942" ry="18"/>
<text text-anchor="middle" x="1271.3466" y="-230.3" font-family="Times,serif" font-size="14.00" fill="#000000">gabite</text>
</g>
<!-- gabite&#45;&gt;emboar -->
<g id="edge24" class="edge">
<title>gabite&#45;&gt;emboar</title>
<path fill="none" stroke="#000000" d="M1254.2687,-249.6554C1235.1413,-269.0379 1209.286,-302.1567 1229.3466,-324 1253.2389,-350.0155 2465.3045,-415.1465 2496.3466,-432 2612.1355,-494.8645 2678.3466,-534.2464 2678.3466,-666 2678.3466,-882 2678.3466,-882 2678.3466,-882 2678.3466,-990.55 2564.3466,-989.45 2564.3466,-1098 2564.3466,-1170 2564.3466,-1170 2564.3466,-1170 2564.3466,-1210.124 2564.3466,-1256.5369 2564.3466,-1285.5823"/>
<polygon fill="#000000" stroke="#000000" points="2560.8467,-1285.8146 2564.3466,-1295.8146 2567.8467,-1285.8147 2560.8467,-1285.8146"/>
</g>
<!-- gabite&#45;&gt;emolga -->
<g id="edge25" class="edge">
<title>gabite&#45;&gt;emolga</title>
<path fill="none" stroke="#000000" d="M1293.1915,-220.6032C1327.5676,-200.2403 1397.0157,-161.9729 1461.3466,-144 1550.7901,-119.0111 1827.764,-99.7381 1939.1984,-92.7971"/>
<polygon fill="#000000" stroke="#000000" points="1939.6884,-96.2736 1949.4537,-92.1641 1939.2571,-89.2869 1939.6884,-96.2736"/>
</g>
<!-- gabite&#45;&gt;exeggcute -->
<g id="edge26" class="edge">
<title>gabite&#45;&gt;exeggcute</title>
<path fill="none" stroke="#000000" d="M1295.7253,-221.8235C1301.3826,-219.4886 1307.4711,-217.3527 1313.3466,-216 1418.5168,-191.7875 2174.9211,-169.4124 2389.0168,-163.5105"/>
<polygon fill="#000000" stroke="#000000" points="2389.1939,-167.007 2399.094,-163.2338 2389.0017,-160.0097 2389.1939,-167.007"/>
</g>
<!-- girafarig -->
<g id="node26" class="node">
<title>girafarig</title>
<ellipse fill="none" stroke="#000000" cx="1279.3466" cy="-306" rx="40.8928" ry="18"/>
<text text-anchor="middle" x="1279.3466" y="-302.3" font-family="Times,serif" font-size="14.00" fill="#000000">girafarig</text>
</g>
<!-- girafarig&#45;&gt;gabite -->
<g id="edge27" class="edge">
<title>girafarig&#45;&gt;gabite</title>
<path fill="none" stroke="#000000" d="M1277.3279,-287.8314C1276.4723,-280.131 1275.4549,-270.9743 1274.504,-262.4166"/>
<polygon fill="#000000" stroke="#000000" points="1277.9755,-261.9656 1273.3925,-252.4133 1271.0183,-262.7386 1277.9755,-261.9656"/>
</g>
<!-- gulpin -->
<g id="node27" class="node">
<title>gulpin</title>
<ellipse fill="none" stroke="#000000" cx="1355.3466" cy="-234" rx="33.2948" ry="18"/>
<text text-anchor="middle" x="1355.3466" y="-230.3" font-family="Times,serif" font-size="14.00" fill="#000000">gulpin</text>
</g>
<!-- girafarig&#45;&gt;gulpin -->
<g id="edge28" class="edge">
<title>girafarig&#45;&gt;gulpin</title>
<path fill="none" stroke="#000000" d="M1296.5922,-289.6621C1306.8403,-279.9534 1319.9934,-267.4925 1331.2557,-256.823"/>
<polygon fill="#000000" stroke="#000000" points="1333.8391,-259.1968 1338.6916,-249.7784 1329.0249,-254.1151 1333.8391,-259.1968"/>
</g>
<!-- gulpin&#45;&gt;nosepass -->
<g id="edge29" class="edge">
<title>gulpin&#45;&gt;nosepass</title>
<path fill="none" stroke="#000000" d="M1360.4251,-252.0594C1364.7868,-271.6604 1368.2696,-302.969 1353.3466,-324 1326.9768,-361.1629 1287.0508,-325.4442 1257.3466,-360 1230.6973,-391.002 1238.3466,-409.1184 1238.3466,-450 1238.3466,-594 1238.3466,-594 1238.3466,-594 1238.3466,-701.5886 1217.9442,-728.7783 1176.3466,-828 1172.3439,-837.5475 1166.9052,-847.4453 1161.6476,-856.1187"/>
<polygon fill="#000000" stroke="#000000" points="1158.6468,-854.3159 1156.3018,-864.648 1164.5782,-858.0334 1158.6468,-854.3159"/>
</g>
<!-- haxorus&#45;&gt;sableye -->
<g id="edge30" class="edge">
<title>haxorus&#45;&gt;sableye</title>
<path fill="none" stroke="#000000" d="M932.4225,-443.3442C951.4269,-439.8791 975.1325,-435.6213 996.3466,-432 1095.3094,-415.1067 1120.676,-414.5238 1219.3466,-396 1232.4166,-393.5463 1246.5722,-390.6183 1259.4717,-387.8439"/>
<polygon fill="#000000" stroke="#000000" points="1260.4741,-391.2079 1269.5027,-385.6639 1258.9875,-384.3675 1260.4741,-391.2079"/>
</g>
<!-- haxorus&#45;&gt;scolipede -->
<g id="edge31" class="edge">
<title>haxorus&#45;&gt;scolipede</title>
<path fill="none" stroke="#000000" d="M931.8772,-442.9222C950.9368,-439.2982 974.8611,-435.0248 996.3466,-432 1152.5093,-410.0152 1195.2586,-429.5709 1349.3466,-396 1352.9279,-395.2197 1356.6045,-394.2787 1360.2705,-393.2411"/>
<polygon fill="#000000" stroke="#000000" points="1361.3319,-396.5766 1369.8771,-390.3133 1359.2911,-389.8807 1361.3319,-396.5766"/>
</g>
<!-- haxorus&#45;&gt;scrafty -->
<g id="edge32" class="edge">
<title>haxorus&#45;&gt;scrafty</title>
<path fill="none" stroke="#000000" d="M867.324,-461.8422C807.1482,-488.5417 674.3466,-559.5262 674.3466,-666 674.3466,-954 674.3466,-954 674.3466,-954 674.3466,-994.8567 683.8631,-1041.3576 690.9111,-1070.1939"/>
<polygon fill="#000000" stroke="#000000" points="687.5381,-1071.1325 693.3738,-1079.9753 694.3262,-1069.4234 687.5381,-1071.1325"/>
</g>
<!-- haxorus&#45;&gt;seaking -->
<g id="edge33" class="edge">
<title>haxorus&#45;&gt;seaking</title>
<path fill="none" stroke="#000000" d="M929.9137,-441.2434C979.9538,-428.1894 1074.1122,-403.6264 1129.2006,-389.2555"/>
<polygon fill="#000000" stroke="#000000" points="1130.22,-392.6068 1139.0127,-386.6958 1128.453,-385.8334 1130.22,-392.6068"/>
</g>
<!-- haxorus&#45;&gt;sealeo -->
<g id="edge34" class="edge">
<title>haxorus&#45;&gt;sealeo</title>
<path fill="none" stroke="#000000" d="M865.262,-439.2187C835.1841,-428.6549 788.3938,-411.8735 748.3466,-396 746.1065,-395.1121 743.8067,-394.1815 741.4928,-393.2308"/>
<polygon fill="#000000" stroke="#000000" points="742.5953,-389.8981 732.0192,-389.2676 739.8937,-396.3558 742.5953,-389.8981"/>
</g>
<!-- haxorus&#45;&gt;silcoon -->
<g id="edge35" class="edge">
<title>haxorus&#45;&gt;silcoon</title>
<path fill="none" stroke="#000000" d="M874.5029,-434.7307C859.417,-424.1851 839.1807,-410.0394 822.6896,-398.5116"/>
<polygon fill="#000000" stroke="#000000" points="824.6556,-395.6156 814.4543,-392.7549 820.6451,-401.3528 824.6556,-395.6156"/>
</g>
<!-- haxorus&#45;&gt;simisear -->
<g id="edge36" class="edge">
<title>haxorus&#45;&gt;simisear</title>
<path fill="none" stroke="#000000" d="M897.0068,-468.1231C899.2122,-517.8013 908.0578,-654.4157 939.3466,-684 1034.9341,-774.3804 1452.5012,-801.3134 1598.0727,-808.0364"/>
<polygon fill="#000000" stroke="#000000" points="1597.9285,-811.5334 1608.0756,-808.4862 1598.2429,-804.5405 1597.9285,-811.5334"/>
</g>
<!-- haxorus&#45;&gt;snivy -->
<g id="edge37" class="edge">
<title>haxorus&#45;&gt;snivy</title>
<path fill="none" stroke="#000000" d="M859.9712,-443.9234C779.495,-430.4795 586.9643,-398.3166 504.2224,-384.4943"/>
<polygon fill="#000000" stroke="#000000" points="504.6658,-381.02 494.2257,-382.8244 503.5123,-387.9243 504.6658,-381.02"/>
</g>
<!-- haxorus&#45;&gt;snorlax -->
<g id="edge38" class="edge">
<title>haxorus&#45;&gt;snorlax</title>
<path fill="none" stroke="#000000" d="M860.7023,-443.32C814.9598,-434.3723 733.3872,-417.1455 665.3466,-396 662.5827,-395.141 659.748,-394.1957 656.9093,-393.2017"/>
<polygon fill="#000000" stroke="#000000" points="657.9328,-389.8491 647.3391,-389.6895 655.521,-396.4205 657.9328,-389.8491"/>
</g>
<!-- haxorus&#45;&gt;spoink -->
<g id="edge39" class="edge">
<title>haxorus&#45;&gt;spoink</title>
<path fill="none" stroke="#000000" d="M933.1943,-444.7417C960.9612,-440.8892 999.9954,-435.7071 1034.3466,-432 1221.0564,-411.8505 1272.7938,-440.0572 1455.3466,-396 1458.1296,-395.3284 1460.9662,-394.5082 1463.7909,-393.5922"/>
<polygon fill="#000000" stroke="#000000" points="1465.0303,-396.866 1473.253,-390.1848 1462.6586,-390.28 1465.0303,-396.866"/>
</g>
<!-- haxorus&#45;&gt;starly -->
<g id="edge40" class="edge">
<title>haxorus&#45;&gt;starly</title>
<path fill="none" stroke="#000000" d="M858.4077,-446.8641C778.281,-439.973 586.0441,-422.0238 426.3466,-396 411.1319,-393.5207 394.519,-390.1523 380.0488,-386.9999"/>
<polygon fill="#000000" stroke="#000000" points="380.4622,-383.5066 369.9415,-384.7584 378.9465,-390.3406 380.4622,-383.5066"/>
</g>
<!-- sableye&#45;&gt;emboar -->
<g id="edge128" class="edge">
<title>sableye&#45;&gt;emboar</title>
<path fill="none" stroke="#000000" d="M1330.6662,-390.1745C1336.7149,-392.449 1343.166,-394.5604 1349.3466,-396 1533.5385,-438.903 1585.8175,-407.5025 1773.3466,-432 2147.1156,-480.8266 2564.3466,-361.0553 2564.3466,-738 2564.3466,-882 2564.3466,-882 2564.3466,-882 2564.3466,-1002.1612 2575.2344,-1031.8791 2578.3466,-1152 2579.5898,-1199.9839 2584.4185,-1212.3856 2578.3466,-1260 2577.2612,-1268.5113 2575.2504,-1277.5989 2573.0846,-1285.8445"/>
<polygon fill="#000000" stroke="#000000" points="2569.6421,-1285.1586 2570.3164,-1295.7319 2576.3829,-1287.0458 2569.6421,-1285.1586"/>
</g>
<!-- sableye&#45;&gt;emolga -->
<g id="edge129" class="edge">
<title>sableye&#45;&gt;emolga</title>
<path fill="none" stroke="#000000" d="M1332.7097,-366.5909C1353.4479,-357.4358 1380.8986,-342.9823 1400.3466,-324 1466.7858,-259.1518 1428.4507,-194.5142 1506.3466,-144 1542.2099,-120.7433 1825.4094,-100.2792 1939.2274,-92.9111"/>
<polygon fill="#000000" stroke="#000000" points="1939.6239,-96.3929 1949.3792,-92.2596 1939.1755,-89.4073 1939.6239,-96.3929"/>
</g>
<!-- sableye&#45;&gt;exeggcute -->
<g id="edge130" class="edge">
<title>sableye&#45;&gt;exeggcute</title>
<path fill="none" stroke="#000000" d="M1332.4911,-366.4249C1338.0734,-364.2563 1343.881,-362.0332 1349.3466,-360 1394.4039,-343.2386 1408.7421,-346.2702 1451.3466,-324 1524.1493,-285.9446 1524.0094,-243.702 1601.3466,-216 1675.082,-189.5882 2212.2388,-169.6901 2389.0739,-163.796"/>
<polygon fill="#000000" stroke="#000000" points="2389.3277,-167.2896 2399.2063,-163.4605 2389.0959,-160.2935 2389.3277,-167.2896"/>
</g>
<!-- scolipede&#45;&gt;emboar -->
<g id="edge131" class="edge">
<title>scolipede&#45;&gt;emboar</title>
<path fill="none" stroke="#000000" d="M1434.5072,-390.3862C1441.6023,-392.6475 1449.1503,-394.7 1456.3466,-396 1566.6328,-415.9235 2367.8814,-374.952 2464.3466,-432 2528.5542,-469.9714 2602.3466,-663.4048 2602.3466,-738 2602.3466,-810 2602.3466,-810 2602.3466,-810 2602.3466,-1011.3309 2753.5421,-1084.8019 2654.3466,-1260 2643.7963,-1278.6339 2623.967,-1291.5392 2605.601,-1300.0487"/>
<polygon fill="#000000" stroke="#000000" points="2603.9858,-1296.9336 2596.187,-1304.105 2606.7558,-1303.3622 2603.9858,-1296.9336"/>
</g>
<!-- scolipede&#45;&gt;emolga -->
<g id="edge132" class="edge">
<title>scolipede&#45;&gt;emolga</title>
<path fill="none" stroke="#000000" d="M1419.872,-360.9524C1429.7972,-350.7699 1442.0472,-337.2699 1451.3466,-324 1503.2604,-249.9212 1471.8748,-195.3485 1546.3466,-144 1578.2707,-121.9883 1832.6327,-101.1664 1939.4134,-93.3033"/>
<polygon fill="#000000" stroke="#000000" points="1939.8575,-96.7803 1949.5761,-92.5614 1939.3477,-89.7989 1939.8575,-96.7803"/>
</g>
<!-- scolipede&#45;&gt;exeggcute -->
<g id="edge133" class="edge">
<title>scolipede&#45;&gt;exeggcute</title>
<path fill="none" stroke="#000000" d="M1436.2037,-366.2685C1462.074,-356.6286 1498.1342,-341.7063 1527.3466,-324 1592.4642,-284.5308 1589.5027,-243.9153 1660.3466,-216 1727.6097,-189.4957 2220.4164,-169.9001 2388.9867,-163.911"/>
<polygon fill="#000000" stroke="#000000" points="2389.2713,-167.4032 2399.1416,-163.5527 2389.0244,-160.4076 2389.2713,-167.4032"/>
</g>
<!-- scrafty&#45;&gt;yamask -->
<g id="edge134" class="edge">
<title>scrafty&#45;&gt;yamask</title>
<path fill="none" stroke="#000000" d="M667.9495,-1089.3151C623.2775,-1076.5517 539.7116,-1052.6757 488.9421,-1038.1701"/>
<polygon fill="#000000" stroke="#000000" points="489.8235,-1034.782 479.2467,-1035.4 487.9004,-1041.5127 489.8235,-1034.782"/>
</g>
<!-- seaking&#45;&gt;gabite -->
<g id="edge135" class="edge">
<title>seaking&#45;&gt;gabite</title>
<path fill="none" stroke="#000000" d="M1173.5844,-359.943C1175.6761,-340.6284 1181.2914,-309.8329 1196.3466,-288 1206.8311,-272.7955 1223.0506,-260.3464 1237.7279,-251.249"/>
<polygon fill="#000000" stroke="#000000" points="1239.7614,-254.1134 1246.6022,-246.023 1236.2092,-248.0815 1239.7614,-254.1134"/>
</g>
<!-- seaking&#45;&gt;girafarig -->
<g id="edge136" class="edge">
<title>seaking&#45;&gt;girafarig</title>
<path fill="none" stroke="#000000" d="M1194.2578,-363.256C1209.7734,-352.8156 1230.8113,-338.6593 1248.0859,-327.0352"/>
<polygon fill="#000000" stroke="#000000" points="1250.3846,-329.7071 1256.7272,-321.2205 1246.4766,-323.8995 1250.3846,-329.7071"/>
</g>
<!-- seaking&#45;&gt;gulpin -->
<g id="edge137" class="edge">
<title>seaking&#45;&gt;gulpin</title>
<path fill="none" stroke="#000000" d="M1202.8624,-367.42C1209.9162,-364.9791 1217.3917,-362.396 1224.3466,-360 1270.9896,-343.9313 1295.3289,-359.7291 1329.3466,-324 1345.0543,-307.5021 1351.3569,-282.1163 1353.8438,-262.5065"/>
<polygon fill="#000000" stroke="#000000" points="1357.352,-262.5992 1354.8684,-252.2996 1350.387,-261.9 1357.352,-262.5992"/>
</g>
<!-- silcoon&#45;&gt;nosepass -->
<g id="edge138" class="edge">
<title>silcoon&#45;&gt;nosepass</title>
<path fill="none" stroke="#000000" d="M801.5424,-395.6435C818.3501,-444.9045 856.9758,-586.6788 926.3466,-684 980.8125,-760.4109 1070.4485,-826.9812 1116.0941,-859.9659"/>
<polygon fill="#000000" stroke="#000000" points="1114.1917,-862.9092 1124.3502,-865.9186 1118.2856,-857.2311 1114.1917,-862.9092"/>
</g>
<!-- simisear&#45;&gt;registeel -->
<g id="edge139" class="edge">
<title>simisear&#45;&gt;registeel</title>
<path fill="none" stroke="#000000" d="M1656.2202,-827.7865C1667.3507,-854.5941 1686.3466,-907.201 1686.3466,-954 1686.3466,-1098 1686.3466,-1098 1686.3466,-1098 1686.3466,-1143.1547 1658.6689,-1189.3049 1638.6294,-1216.8014"/>
<polygon fill="#000000" stroke="#000000" points="1635.6424,-1214.9503 1632.4362,-1225.0484 1641.2399,-1219.1538 1635.6424,-1214.9503"/>
</g>
<!-- simisear&#45;&gt;relicanth -->
<g id="edge140" class="edge">
<title>simisear&#45;&gt;relicanth</title>
<path fill="none" stroke="#000000" d="M1641.4591,-792.1927C1626.4898,-750.2495 1595.9051,-643.6895 1642.3466,-576 1648.1719,-567.5095 1700.1994,-548.91 1739.1398,-535.9263"/>
<polygon fill="#000000" stroke="#000000" points="1740.3274,-539.22 1748.7218,-532.7559 1738.1285,-532.5743 1740.3274,-539.22"/>
</g>
<!-- simisear&#45;&gt;remoraid -->
<g id="edge141" class="edge">
<title>simisear&#45;&gt;remoraid</title>
<path fill="none" stroke="#000000" d="M1674.1686,-796.0098C1713.4983,-774.2249 1790.0922,-729.9078 1849.3466,-684 1867.7373,-669.7516 1868.4129,-661.5186 1887.3466,-648 1953.0886,-601.0605 2038.6031,-560.583 2088.0957,-538.8965"/>
<polygon fill="#000000" stroke="#000000" points="2089.7193,-542.0072 2097.4974,-534.8134 2086.9308,-535.5866 2089.7193,-542.0072"/>
</g>
<!-- simisear&#45;&gt;rufflet -->
<g id="edge142" class="edge">
<title>simisear&#45;&gt;rufflet</title>
<path fill="none" stroke="#000000" d="M1686.4673,-803.7456C1743.704,-794.2229 1855.1817,-775.1635 1949.3466,-756 1962.0539,-753.4139 1975.8538,-750.3562 1988.3114,-747.5018"/>
<polygon fill="#000000" stroke="#000000" points="1989.4527,-750.8304 1998.4067,-745.1668 1987.8752,-744.0104 1989.4527,-750.8304"/>
</g>
<!-- snivy&#45;&gt;yamask -->
<g id="edge143" class="edge">
<title>snivy&#45;&gt;yamask</title>
<path fill="none" stroke="#000000" d="M464.218,-395.9938C463.5918,-406.4917 462.8418,-419.9917 462.3466,-432 453.3881,-649.2422 448.3356,-911.3937 446.8297,-997.2604"/>
<polygon fill="#000000" stroke="#000000" points="443.3258,-997.4579 446.6521,-1007.5171 450.3248,-997.5792 443.3258,-997.4579"/>
</g>
<!-- spoink&#45;&gt;kangaskhan -->
<g id="edge144" class="edge">
<title>spoink&#45;&gt;kangaskhan</title>
<path fill="none" stroke="#000000" d="M1478.0715,-392.2628C1446.3506,-415.4247 1390.3466,-464.4645 1390.3466,-522 1390.3466,-810 1390.3466,-810 1390.3466,-810 1390.3466,-851.9312 1373.7314,-898.082 1361.4018,-926.5565"/>
<polygon fill="#000000" stroke="#000000" points="1358.1314,-925.2968 1357.2537,-935.8553 1364.5241,-928.1487 1358.1314,-925.2968"/>
</g>
<!-- spoink&#45;&gt;kricketune -->
<g id="edge145" class="edge">
<title>spoink&#45;&gt;kricketune</title>
<path fill="none" stroke="#000000" d="M1533.7526,-375.5424C1681.5705,-364.984 2263.6381,-323.4077 2449.7767,-310.1121"/>
<polygon fill="#000000" stroke="#000000" points="2450.1785,-313.5924 2459.9037,-309.3888 2449.6797,-306.6102 2450.1785,-313.5924"/>
</g>
<!-- starly&#45;&gt;yamask -->
<g id="edge146" class="edge">
<title>starly&#45;&gt;yamask</title>
<path fill="none" stroke="#000000" d="M344.2504,-395.9205C358.8185,-485.8266 423.9482,-887.7696 441.8056,-997.9757"/>
<polygon fill="#000000" stroke="#000000" points="438.3742,-998.6811 443.4287,-1007.9925 445.2841,-997.5613 438.3742,-998.6811"/>
</g>
<!-- heatmor&#45;&gt;registeel -->
<g id="edge41" class="edge">
<title>heatmor&#45;&gt;registeel</title>
<path fill="none" stroke="#000000" d="M1878.4093,-595.9581C1946.5845,-600.2207 2080.5923,-612.9507 2109.3466,-648 2119.4948,-660.3699 2113.3601,-668.5115 2109.3466,-684 2072.489,-826.238 1786.4423,-1085.3111 1681.3466,-1188 1670.2365,-1198.8557 1657.3086,-1210.1467 1646.0654,-1219.5805"/>
<polygon fill="#000000" stroke="#000000" points="1643.6846,-1217.008 1638.2263,-1226.0887 1648.156,-1222.3938 1643.6846,-1217.008"/>
</g>
<!-- heatmor&#45;&gt;relicanth -->
<g id="edge42" class="edge">
<title>heatmor&#45;&gt;relicanth</title>
<path fill="none" stroke="#000000" d="M1819.8785,-577.6621C1812.1109,-568.9336 1803.3395,-557.9805 1796.1322,-548.1047"/>
<polygon fill="#000000" stroke="#000000" points="1798.8893,-545.9413 1790.2657,-539.7862 1793.1688,-549.9756 1798.8893,-545.9413"/>
</g>
<!-- heatmor&#45;&gt;remoraid -->
<g id="edge43" class="edge">
<title>heatmor&#45;&gt;remoraid</title>
<path fill="none" stroke="#000000" d="M1870.1691,-582.8244C1877.4179,-580.4376 1885.115,-578.0275 1892.3466,-576 1956.389,-558.0448 2031.4321,-541.654 2079.4055,-531.7542"/>
<polygon fill="#000000" stroke="#000000" points="2080.1249,-535.1796 2089.2179,-529.742 2078.7187,-528.3223 2080.1249,-535.1796"/>
</g>
<!-- heatmor&#45;&gt;rufflet -->
<g id="edge44" class="edge">
<title>heatmor&#45;&gt;rufflet</title>
<path fill="none" stroke="#000000" d="M1875.6032,-601.1928C1905.8657,-608.6172 1948.166,-622.7711 1977.3466,-648 1996.7556,-664.7805 2010.3848,-690.8608 2018.6406,-710.6351"/>
<polygon fill="#000000" stroke="#000000" points="2015.4301,-712.0342 2022.3668,-720.0425 2021.9382,-709.4563 2015.4301,-712.0342"/>
</g>
<!-- heatran&#45;&gt;nosepass -->
<g id="edge45" class="edge">
<title>heatran&#45;&gt;nosepass</title>
<path fill="none" stroke="#000000" d="M1137.1709,-468.013C1138.7209,-502.7943 1142.0318,-581.6278 1143.3466,-648 1144.8152,-722.1395 1144.6979,-809.5167 1144.5097,-853.5628"/>
<polygon fill="#000000" stroke="#000000" points="1141.0087,-853.7765 1144.4612,-863.793 1148.0086,-853.8097 1141.0087,-853.7765"/>
</g>
<!-- ivysaur -->
<g id="node42" class="node">
<title>ivysaur</title>
<ellipse fill="none" stroke="#000000" cx="1746.3466" cy="-1314" rx="36.2938" ry="18"/>
<text text-anchor="middle" x="1746.3466" y="-1310.3" font-family="Times,serif" font-size="14.00" fill="#000000">ivysaur</text>
</g>
<!-- ivysaur&#45;&gt;registeel -->
<g id="edge46" class="edge">
<title>ivysaur&#45;&gt;registeel</title>
<path fill="none" stroke="#000000" d="M1722.2708,-1300.4574C1702.5395,-1289.3585 1674.3785,-1273.518 1652.3472,-1261.1254"/>
<polygon fill="#000000" stroke="#000000" points="1654.0598,-1258.073 1643.6281,-1256.2209 1650.6279,-1264.174 1654.0598,-1258.073"/>
</g>
<!-- ivysaur&#45;&gt;relicanth -->
<g id="edge47" class="edge">
<title>ivysaur&#45;&gt;relicanth</title>
<path fill="none" stroke="#000000" d="M1758.764,-1296.9665C1765.4032,-1286.7886 1772.9032,-1273.2886 1776.3466,-1260 1836.6974,-1027.0987 1813.8334,-948.4447 1738.3466,-720 1732.6039,-702.6209 1722.9378,-701.7182 1718.3466,-684 1705.3807,-633.9631 1738.2615,-578.5228 1761.5463,-547.2019"/>
<polygon fill="#000000" stroke="#000000" points="1764.5039,-549.0967 1767.8132,-539.032 1758.9497,-544.8363 1764.5039,-549.0967"/>
</g>
<!-- ivysaur&#45;&gt;remoraid -->
<g id="edge48" class="edge">
<title>ivysaur&#45;&gt;remoraid</title>
<path fill="none" stroke="#000000" d="M1774.4015,-1302.5041C1780.2898,-1300.2375 1786.4905,-1297.9573 1792.3466,-1296 1848.8007,-1277.1308 1871.9171,-1293.1638 1921.3466,-1260 1955.0111,-1237.4134 1958.4424,-1223.8621 1977.3466,-1188 2005.4364,-1134.7126 1926.0794,-1464.3 2126.3466,-684 2138.4095,-636.9994 2148.4847,-624.1341 2142.3466,-576 2141.2612,-567.4887 2139.2504,-558.4011 2137.0846,-550.1555"/>
<polygon fill="#000000" stroke="#000000" points="2140.3829,-548.9542 2134.3164,-540.2681 2133.6421,-550.8414 2140.3829,-548.9542"/>
</g>
<!-- ivysaur&#45;&gt;rufflet -->
<g id="edge49" class="edge">
<title>ivysaur&#45;&gt;rufflet</title>
<path fill="none" stroke="#000000" d="M1775.0205,-1302.6729C1780.7511,-1300.4393 1786.7337,-1298.1288 1792.3466,-1296 1835.7322,-1279.5448 1856.6969,-1291.9498 1890.3466,-1260 1972.3643,-1182.1257 1990.3466,-1139.0987 1990.3466,-1026 1990.3466,-1026 1990.3466,-1026 1990.3466,-882 1990.3466,-840.1368 2005.5469,-793.6262 2016.7203,-765.0925"/>
<polygon fill="#000000" stroke="#000000" points="2019.979,-766.3698 2020.473,-755.7865 2013.487,-763.7518 2019.979,-766.3698"/>
</g>
<!-- jellicent -->
<g id="node43" class="node">
<title>jellicent</title>
<ellipse fill="none" stroke="#000000" cx="1901.3466" cy="-738" rx="38.9931" ry="18"/>
<text text-anchor="middle" x="1901.3466" y="-734.3" font-family="Times,serif" font-size="14.00" fill="#000000">jellicent</text>
</g>
<!-- jellicent&#45;&gt;tirtouga -->
<g id="edge50" class="edge">
<title>jellicent&#45;&gt;tirtouga</title>
<path fill="none" stroke="#000000" d="M1929.3907,-725.4586C1955.859,-713.6218 1995.7282,-695.7921 2024.9045,-682.7443"/>
<polygon fill="#000000" stroke="#000000" points="2026.6544,-685.7958 2034.3543,-678.5183 2023.7967,-679.4057 2026.6544,-685.7958"/>
</g>
<!-- jellicent&#45;&gt;trapinch -->
<g id="edge51" class="edge">
<title>jellicent&#45;&gt;trapinch</title>
<path fill="none" stroke="#000000" d="M1879.9271,-722.7307C1865.4652,-712.4212 1846.1766,-698.6709 1830.2112,-687.2896"/>
<polygon fill="#000000" stroke="#000000" points="1831.9097,-684.2022 1821.7352,-681.2473 1827.8463,-689.9021 1831.9097,-684.2022"/>
</g>
<!-- jellicent&#45;&gt;treecko -->
<g id="edge52" class="edge">
<title>jellicent&#45;&gt;treecko</title>
<path fill="none" stroke="#000000" d="M1909.0095,-720.2022C1912.512,-712.0675 1916.7389,-702.2501 1920.6277,-693.2181"/>
<polygon fill="#000000" stroke="#000000" points="1923.9244,-694.4115 1924.6644,-683.8425 1917.4951,-691.6433 1923.9244,-694.4115"/>
</g>
<!-- jellicent&#45;&gt;tyrogue -->
<g id="edge53" class="edge">
<title>jellicent&#45;&gt;tyrogue</title>
<path fill="none" stroke="#000000" d="M1936.386,-730.077C1951.945,-726.7114 1970.5105,-722.9032 1987.3466,-720 2113.3714,-698.2687 2263.1429,-679.8993 2337.5524,-671.2714"/>
<polygon fill="#000000" stroke="#000000" points="2338.0083,-674.7421 2347.5414,-670.1193 2337.2062,-667.7882 2338.0083,-674.7421"/>
</g>
<!-- tirtouga&#45;&gt;audino -->
<g id="edge147" class="edge">
<title>tirtouga&#45;&gt;audino</title>
<path fill="none" stroke="#000000" d="M2047.2465,-649.3307C1967.1447,-560.9049 1592.0288,-146.8076 1497.1791,-42.1013"/>
<polygon fill="#000000" stroke="#000000" points="1499.6545,-39.6206 1490.3468,-34.559 1494.4665,-44.3201 1499.6545,-39.6206"/>
</g>
<!-- trapinch&#45;&gt;haxorus -->
<g id="edge148" class="edge">
<title>trapinch&#45;&gt;haxorus</title>
<path fill="none" stroke="#000000" d="M1763.1861,-659.5696C1709.5685,-650.119 1607.4837,-631.4793 1521.3466,-612 1300.9584,-562.1609 1040.1325,-490.3669 939.1952,-462.0941"/>
<polygon fill="#000000" stroke="#000000" points="939.9431,-458.6689 929.3694,-459.3378 938.0524,-465.4088 939.9431,-458.6689"/>
</g>
<!-- trapinch&#45;&gt;heatmor -->
<g id="edge149" class="edge">
<title>trapinch&#45;&gt;heatmor</title>
<path fill="none" stroke="#000000" d="M1809.7399,-648.2022C1814.1115,-639.9192 1819.4039,-629.8915 1824.2419,-620.7248"/>
<polygon fill="#000000" stroke="#000000" points="1827.4891,-622.0706 1829.0614,-611.593 1821.2984,-618.8032 1827.4891,-622.0706"/>
</g>
<!-- trapinch&#45;&gt;heatran -->
<g id="edge150" class="edge">
<title>trapinch&#45;&gt;heatran</title>
<path fill="none" stroke="#000000" d="M1767.871,-655.4357C1657.5791,-619.5576 1297.5221,-502.4306 1176.4667,-463.0511"/>
<polygon fill="#000000" stroke="#000000" points="1177.427,-459.683 1166.8348,-459.9178 1175.2615,-466.3397 1177.427,-459.683"/>
</g>
<!-- tyrogue&#45;&gt;emboar -->
<g id="edge151" class="edge">
<title>tyrogue&#45;&gt;emboar</title>
<path fill="none" stroke="#000000" d="M2390.1482,-683.9672C2398.3496,-711.0051 2412.3466,-763.9025 2412.3466,-810 2412.3466,-1098 2412.3466,-1098 2412.3466,-1098 2412.3466,-1175.0929 2424.8031,-1200.9343 2474.3466,-1260 2487.9816,-1276.2556 2507.8319,-1288.8952 2525.423,-1297.8453"/>
<polygon fill="#000000" stroke="#000000" points="2524.3836,-1301.2307 2534.9095,-1302.4375 2527.4337,-1294.9301 2524.3836,-1301.2307"/>
</g>
<!-- tyrogue&#45;&gt;emolga -->
<g id="edge152" class="edge">
<title>tyrogue&#45;&gt;emolga</title>
<path fill="none" stroke="#000000" d="M2401.9725,-649.7164C2449.735,-604.0948 2580.4658,-468.8569 2616.3466,-324 2637.9479,-236.7917 2601.5144,-190.0112 2524.3466,-144 2430.1879,-87.8581 2139.2574,-132.2459 2032.3466,-108 2029.3488,-107.3202 2026.2888,-106.4778 2023.2426,-105.5318"/>
<polygon fill="#000000" stroke="#000000" points="2024.2483,-102.1765 2013.6536,-102.2292 2021.9688,-108.7949 2024.2483,-102.1765"/>
</g>
<!-- tyrogue&#45;&gt;exeggcute -->
<g id="edge153" class="edge">
<title>tyrogue&#45;&gt;exeggcute</title>
<path fill="none" stroke="#000000" d="M2390.1482,-648.0328C2398.3496,-620.9949 2412.3466,-568.0975 2412.3466,-522 2412.3466,-522 2412.3466,-522 2412.3466,-306 2412.3466,-264.6545 2425.4318,-218.2804 2435.1227,-189.6051"/>
<polygon fill="#000000" stroke="#000000" points="2438.5248,-190.4782 2438.509,-179.8833 2431.9143,-188.1756 2438.5248,-190.4782"/>
</g>
<!-- jumpluff -->
<g id="node48" class="node">
<title>jumpluff</title>
<ellipse fill="none" stroke="#000000" cx="3220.3466" cy="-1386" rx="42.4939" ry="18"/>
<text text-anchor="middle" x="3220.3466" y="-1382.3" font-family="Times,serif" font-size="14.00" fill="#000000">jumpluff</text>
</g>
<!-- landorus&#45;&gt;sableye -->
<g id="edge58" class="edge">
<title>landorus&#45;&gt;sableye</title>
<path fill="none" stroke="#000000" d="M701.7416,-1156.4609C685.7756,-1147.2231 666.6635,-1133.4929 655.3466,-1116 633.1403,-1081.6752 636.3466,-1066.8816 636.3466,-1026 636.3466,-1026 636.3466,-1026 636.3466,-666 636.3466,-525.3665 716.7813,-478.9491 849.3466,-432 1005.0888,-376.8427 1056.082,-421.3505 1219.3466,-396 1232.6037,-393.9415 1246.9155,-391.1073 1259.904,-388.2965"/>
<polygon fill="#000000" stroke="#000000" points="1260.9847,-391.6421 1269.9914,-386.0627 1259.4712,-384.8077 1260.9847,-391.6421"/>
</g>
<!-- landorus&#45;&gt;scolipede -->
<g id="edge59" class="edge">
<title>landorus&#45;&gt;scolipede</title>
<path fill="none" stroke="#000000" d="M746.2511,-1153.2927C755.6359,-1143.2236 766.8859,-1129.7236 774.3466,-1116 929.6803,-830.2719 769.7099,-621.0411 1034.3466,-432 1091.6772,-391.0463 1280.5983,-411.4165 1349.3466,-396 1352.9231,-395.198 1356.5963,-394.2415 1360.26,-393.1936"/>
<polygon fill="#000000" stroke="#000000" points="1361.3283,-396.5269 1369.8629,-390.2491 1359.2762,-389.8345 1361.3283,-396.5269"/>
</g>
<!-- landorus&#45;&gt;scrafty -->
<g id="edge60" class="edge">
<title>landorus&#45;&gt;scrafty</title>
<path fill="none" stroke="#000000" d="M721.6837,-1152.2022C718.1549,-1144.0064 713.8907,-1134.1024 709.9779,-1125.0145"/>
<polygon fill="#000000" stroke="#000000" points="713.0907,-1123.3938 705.9214,-1115.593 706.6613,-1126.162 713.0907,-1123.3938"/>
</g>
<!-- landorus&#45;&gt;seaking -->
<g id="edge61" class="edge">
<title>landorus&#45;&gt;seaking</title>
<path fill="none" stroke="#000000" d="M698.8663,-1157.9287C671.0385,-1146.34 632.7086,-1128.7612 622.3466,-1116 596.2513,-1083.8626 598.3466,-1067.3978 598.3466,-1026 598.3466,-1026 598.3466,-1026 598.3466,-522 598.3466,-413.8573 986.4975,-386.196 1124.4257,-379.7805"/>
<polygon fill="#000000" stroke="#000000" points="1124.8514,-383.265 1134.6849,-379.3213 1124.5383,-376.272 1124.8514,-383.265"/>
</g>
<!-- landorus&#45;&gt;sealeo -->
<g id="edge62" class="edge">
<title>landorus&#45;&gt;sealeo</title>
<path fill="none" stroke="#000000" d="M699.0133,-1157.8072C692.6013,-1155.5911 685.8159,-1153.5077 679.3466,-1152 609.8696,-1135.8081 414.7192,-1162.1828 360.3466,-1116 277.9879,-1046.0465 294.3466,-990.0576 294.3466,-882 294.3466,-882 294.3466,-882 294.3466,-810 294.3466,-808.4226 545.0808,-432.9413 546.3466,-432 590.344,-399.2793 612.8495,-414.8273 664.3466,-396 666.6098,-395.1726 668.9272,-394.2881 671.2541,-393.3718"/>
<polygon fill="#000000" stroke="#000000" points="672.8244,-396.5111 680.7586,-389.4898 670.1776,-390.0308 672.8244,-396.5111"/>
</g>
<!-- landorus&#45;&gt;silcoon -->
<g id="edge63" class="edge">
<title>landorus&#45;&gt;silcoon</title>
<path fill="none" stroke="#000000" d="M697.371,-1158.5036C655.2838,-1143.3131 586.3504,-1118.2058 584.3466,-1116 556.5106,-1085.3579 560.3466,-1067.3978 560.3466,-1026 560.3466,-1026 560.3466,-1026 560.3466,-522 560.3466,-480.6022 554.448,-460.6331 584.3466,-432 637.9287,-380.6857 676.365,-417.5827 747.3466,-396 750.1157,-395.158 752.9542,-394.2252 755.7957,-393.2401"/>
<polygon fill="#000000" stroke="#000000" points="757.1772,-396.4618 765.3713,-389.7456 754.7774,-389.886 757.1772,-396.4618"/>
</g>
<!-- landorus&#45;&gt;simisear -->
<g id="edge64" class="edge">
<title>landorus&#45;&gt;simisear</title>
<path fill="none" stroke="#000000" d="M767.6902,-1163.205C873.6481,-1143.5196 1177.9005,-1080.8232 1409.3466,-972 1492.2751,-933.008 1578.6425,-867.0926 1621.2474,-832.5905"/>
<polygon fill="#000000" stroke="#000000" points="1623.635,-835.1597 1629.171,-826.1262 1619.2099,-829.7358 1623.635,-835.1597"/>
</g>
<!-- landorus&#45;&gt;snivy -->
<g id="edge65" class="edge">
<title>landorus&#45;&gt;snivy</title>
<path fill="none" stroke="#000000" d="M699.0412,-1157.6838C692.6272,-1155.4767 685.8339,-1153.4281 679.3466,-1152 590.2397,-1132.3849 347.2928,-1165.0313 270.3466,-1116 231.3874,-1091.1746 218.3466,-1072.1966 218.3466,-1026 218.3466,-1026 218.3466,-1026 218.3466,-810 218.3466,-631.4579 379.3128,-459.6513 441.3588,-400.0586"/>
<polygon fill="#000000" stroke="#000000" points="443.9134,-402.4594 448.7567,-393.0364 439.0943,-397.3825 443.9134,-402.4594"/>
</g>
<!-- landorus&#45;&gt;snorlax -->
<g id="edge66" class="edge">
<title>landorus&#45;&gt;snorlax</title>
<path fill="none" stroke="#000000" d="M699.0266,-1157.749C692.6137,-1155.5372 685.8245,-1153.4702 679.3466,-1152 601.8039,-1134.4018 392.5154,-1155.2205 323.3466,-1116 279.9679,-1091.4032 256.3466,-1075.867 256.3466,-1026 256.3466,-1026 256.3466,-1026 256.3466,-810 256.3466,-605.3368 366.7039,-568.3349 519.3466,-432 537.4307,-415.848 561.1965,-402.7595 581.0219,-393.5153"/>
<polygon fill="#000000" stroke="#000000" points="582.7176,-396.5902 590.3956,-389.2895 579.8407,-390.2086 582.7176,-396.5902"/>
</g>
<!-- landorus&#45;&gt;spoink -->
<g id="edge67" class="edge">
<title>landorus&#45;&gt;spoink</title>
<path fill="none" stroke="#000000" d="M734.4657,-1151.6727C737.0986,-1141.2978 740.0262,-1128.0284 741.3466,-1116 743.0925,-1100.0955 742.509,-1095.9577 741.3466,-1080 734.8851,-991.2962 712.3466,-970.9389 712.3466,-882 712.3466,-882 712.3466,-882 712.3466,-810 712.3466,-750.5244 1037.5697,-457.4045 1091.3466,-432 1238.3373,-362.5609 1297.5733,-435.1871 1455.3466,-396 1458.1251,-395.3099 1460.9584,-394.4763 1463.7807,-393.5509"/>
<polygon fill="#000000" stroke="#000000" points="1465.0282,-396.8216 1473.2384,-390.1251 1462.6441,-390.2401 1465.0282,-396.8216"/>
</g>
<!-- landorus&#45;&gt;starly -->
<g id="edge68" class="edge">
<title>landorus&#45;&gt;starly</title>
<path fill="none" stroke="#000000" d="M699.3174,-1157.7339C692.8245,-1155.4946 685.93,-1153.4205 679.3466,-1152 580.8509,-1130.7471 311.3811,-1171.5993 227.3466,-1116 189.7122,-1091.1002 180.3466,-1071.1259 180.3466,-1026 180.3466,-1026 180.3466,-1026 180.3466,-522 180.3466,-455.1662 258.3776,-411.5972 305.7926,-391.2921"/>
<polygon fill="#000000" stroke="#000000" points="307.2224,-394.4882 315.1208,-387.4267 304.5427,-388.0214 307.2224,-394.4882"/>
</g>
<!-- ledyba&#45;&gt;audino -->
<g id="edge69" class="edge">
<title>ledyba&#45;&gt;audino</title>
<path fill="none" stroke="#000000" d="M602.0391,-1167.743C502.9342,-1160.9654 221.1313,-1139.7852 187.3466,-1116 150.7787,-1090.2554 142.3466,-1070.7214 142.3466,-1026 142.3466,-1026 142.3466,-1026 142.3466,-162 142.3466,-95.6617 1199.6609,-33.2679 1430.9827,-20.411"/>
<polygon fill="#000000" stroke="#000000" points="1431.265,-23.9008 1441.0563,-19.8535 1430.8781,-16.9115 1431.265,-23.9008"/>
</g>
<!-- loudred&#45;&gt;darmanitan -->
<g id="edge70" class="edge">
<title>loudred&#45;&gt;darmanitan</title>
<path fill="none" stroke="#000000" d="M1394.4133,-1151.9139C1404.2162,-1106.6795 1428.3466,-984.884 1428.3466,-882 1428.3466,-882 1428.3466,-882 1428.3466,-666 1428.3466,-583.6833 1501.8389,-509.0958 1544.1808,-472.9539"/>
<polygon fill="#000000" stroke="#000000" points="1546.5272,-475.5543 1551.9513,-466.4532 1542.0356,-470.1853 1546.5272,-475.5543"/>
</g>
<!-- loudred&#45;&gt;deino -->
<g id="edge71" class="edge">
<title>loudred&#45;&gt;deino</title>
<path fill="none" stroke="#000000" d="M1404.0109,-1153.09C1447.5762,-1097.4105 1580.3466,-913.3375 1580.3466,-738 1580.3466,-738 1580.3466,-738 1580.3466,-666 1580.3466,-621.8588 1592.1281,-608.1758 1622.3466,-576 1645.2209,-551.6441 1665.1453,-564.0447 1688.3466,-540 1705.4938,-522.2295 1717.425,-496.6425 1724.6723,-477.2896"/>
<polygon fill="#000000" stroke="#000000" points="1727.9897,-478.4067 1728.038,-467.812 1721.3933,-476.0641 1727.9897,-478.4067"/>
</g>
<!-- lumineon&#45;&gt;nosepass -->
<g id="edge72" class="edge">
<title>lumineon&#45;&gt;nosepass</title>
<path fill="none" stroke="#000000" d="M1165.6702,-1152.4262C1144.2513,-1119.0116 1099.406,-1043.2732 1083.3466,-972 1079.8296,-956.3913 1076.7772,-950.5892 1083.3466,-936 1089.2699,-922.8455 1100.157,-911.6009 1111.112,-902.8325"/>
<polygon fill="#000000" stroke="#000000" points="1113.5087,-905.4107 1119.4215,-896.6193 1109.3168,-899.8046 1113.5087,-905.4107"/>
</g>
<!-- lunatone&#45;&gt;emboar -->
<g id="edge73" class="edge">
<title>lunatone&#45;&gt;emboar</title>
<path fill="none" stroke="#000000" d="M1591.3799,-1175.5541C1750.0972,-1198.1384 2346.7248,-1283.0341 2518.0695,-1307.4151"/>
<polygon fill="#000000" stroke="#000000" points="2517.6372,-1310.8888 2528.0306,-1308.8325 2518.6234,-1303.9586 2517.6372,-1310.8888"/>
</g>
<!-- lunatone&#45;&gt;emolga -->
<g id="edge74" class="edge">
<title>lunatone&#45;&gt;emolga</title>
<path fill="none" stroke="#000000" d="M1545.1607,-1152.0145C1511.9526,-1065.8678 1380.5011,-689.0234 1513.3466,-432 1523.8449,-411.6883 1642.2903,-302.0267 1660.3466,-288 1759.3298,-211.1069 1890.1613,-139.676 1951.6312,-107.6669"/>
<polygon fill="#000000" stroke="#000000" points="1953.2666,-110.7615 1960.5357,-103.0537 1950.0465,-104.5461 1953.2666,-110.7615"/>
</g>
<!-- lunatone&#45;&gt;exeggcute -->
<g id="edge75" class="edge">
<title>lunatone&#45;&gt;exeggcute</title>
<path fill="none" stroke="#000000" d="M1566.945,-1153.1104C1585.675,-1130.2089 1617.1954,-1087.1866 1629.3466,-1044 1633.6802,-1028.598 1631.8303,-1023.8061 1629.3466,-1008 1609.776,-883.4524 1542.3466,-864.0758 1542.3466,-738 1542.3466,-738 1542.3466,-738 1542.3466,-666 1542.3466,-620.8741 1557.7275,-608.196 1589.3466,-576 1612.7588,-552.1607 1635.399,-566.8055 1655.3466,-540 1679.7528,-507.203 1674.3466,-490.8816 1674.3466,-450 1674.3466,-450 1674.3466,-450 1674.3466,-306 1674.3466,-233.154 2213.0509,-181.4762 2389.8667,-166.4762"/>
<polygon fill="#000000" stroke="#000000" points="2390.3243,-169.9501 2399.9955,-165.6235 2389.7371,-162.9748 2390.3243,-169.9501"/>
</g>
<!-- machamp -->
<g id="node54" class="node">
<title>machamp</title>
<ellipse fill="none" stroke="#000000" cx="1257.3466" cy="-1386" rx="46.2923" ry="18"/>
<text text-anchor="middle" x="1257.3466" y="-1382.3" font-family="Times,serif" font-size="14.00" fill="#000000">machamp</text>
</g>
<!-- petilil -->
<g id="node55" class="node">
<title>petilil</title>
<ellipse fill="none" stroke="#000000" cx="1221.3466" cy="-1242" rx="31.3957" ry="18"/>
<text text-anchor="middle" x="1221.3466" y="-1238.3" font-family="Times,serif" font-size="14.00" fill="#000000">petilil</text>
</g>
<!-- machamp&#45;&gt;petilil -->
<g id="edge76" class="edge">
<title>machamp&#45;&gt;petilil</title>
<path fill="none" stroke="#000000" d="M1251.2406,-1368.1267C1247.7885,-1357.6689 1243.5385,-1344.1689 1240.3466,-1332 1234.9527,-1311.4364 1230.0307,-1287.9219 1226.5484,-1270.0864"/>
<polygon fill="#000000" stroke="#000000" points="1229.9445,-1269.2116 1224.6234,-1260.0499 1223.0698,-1270.5303 1229.9445,-1269.2116"/>
</g>
<!-- pidgeotto -->
<g id="node56" class="node">
<title>pidgeotto</title>
<ellipse fill="none" stroke="#000000" cx="1951.3466" cy="-1314" rx="44.393" ry="18"/>
<text text-anchor="middle" x="1951.3466" y="-1310.3" font-family="Times,serif" font-size="14.00" fill="#000000">pidgeotto</text>
</g>
<!-- machamp&#45;&gt;pidgeotto -->
<g id="edge77" class="edge">
<title>machamp&#45;&gt;pidgeotto</title>
<path fill="none" stroke="#000000" d="M1303.1336,-1383.5938C1430.0078,-1376.6957 1784.2397,-1355.8112 1898.3466,-1332 1901.9347,-1331.2513 1905.616,-1330.3324 1909.2851,-1329.3098"/>
<polygon fill="#000000" stroke="#000000" points="1910.3363,-1332.6486 1918.8969,-1326.4063 1908.312,-1325.9476 1910.3363,-1332.6486"/>
</g>
<!-- pikachu -->
<g id="node57" class="node">
<title>pikachu</title>
<ellipse fill="none" stroke="#000000" cx="38.3466" cy="-1314" rx="38.1938" ry="18"/>
<text text-anchor="middle" x="38.3466" y="-1310.3" font-family="Times,serif" font-size="14.00" fill="#000000">pikachu</text>
</g>
<!-- machamp&#45;&gt;pikachu -->
<g id="edge78" class="edge">
<title>machamp&#45;&gt;pikachu</title>
<path fill="none" stroke="#000000" d="M1211.1751,-1385.6274C1022.6511,-1383.8341 310.815,-1374.3414 90.3466,-1332 86.1247,-1331.1892 81.7804,-1330.1072 77.487,-1328.8745"/>
<polygon fill="#000000" stroke="#000000" points="78.2328,-1325.4402 67.6435,-1325.7813 76.1342,-1332.1182 78.2328,-1325.4402"/>
</g>
<!-- pinsir -->
<g id="node58" class="node">
<title>pinsir</title>
<ellipse fill="none" stroke="#000000" cx="2142.3466" cy="-1314" rx="30.5947" ry="18"/>
<text text-anchor="middle" x="2142.3466" y="-1310.3" font-family="Times,serif" font-size="14.00" fill="#000000">pinsir</text>
</g>
<!-- machamp&#45;&gt;pinsir -->
<g id="edge79" class="edge">
<title>machamp&#45;&gt;pinsir</title>
<path fill="none" stroke="#000000" d="M1303.6904,-1385.0476C1456.9141,-1381.5832 1946.1242,-1367.9153 2099.3466,-1332 2102.5771,-1331.2428 2105.8759,-1330.2664 2109.138,-1329.1605"/>
<polygon fill="#000000" stroke="#000000" points="2110.5928,-1332.3524 2118.7103,-1325.5437 2108.1187,-1325.8042 2110.5928,-1332.3524"/>
</g>
<!-- poliwrath -->
<g id="node59" class="node">
<title>poliwrath</title>
<ellipse fill="none" stroke="#000000" cx="992.3466" cy="-666" rx="44.393" ry="18"/>
<text text-anchor="middle" x="992.3466" y="-662.3" font-family="Times,serif" font-size="14.00" fill="#000000">poliwrath</text>
</g>
<!-- machamp&#45;&gt;poliwrath -->
<g id="edge80" class="edge">
<title>machamp&#45;&gt;poliwrath</title>
<path fill="none" stroke="#000000" d="M1211.3332,-1383.974C1020.7681,-1374.9834 303.3466,-1334.9631 303.3466,-1242 303.3466,-1242 303.3466,-1242 303.3466,-1098 303.3466,-797.5179 779.5509,-698.073 940.1689,-673.0774"/>
<polygon fill="#000000" stroke="#000000" points="940.9245,-676.5027 950.2837,-671.5373 939.8708,-669.5825 940.9245,-676.5027"/>
</g>
<!-- poochyena -->
<g id="node60" class="node">
<title>poochyena</title>
<ellipse fill="none" stroke="#000000" cx="65.3466" cy="-882" rx="48.9926" ry="18"/>
<text text-anchor="middle" x="65.3466" y="-878.3" font-family="Times,serif" font-size="14.00" fill="#000000">poochyena</text>
</g>
<!-- machamp&#45;&gt;poochyena -->
<g id="edge81" class="edge">
<title>machamp&#45;&gt;poochyena</title>
<path fill="none" stroke="#000000" d="M1211.2341,-1384.4987C1030.9178,-1378.4817 379.0466,-1355.311 289.3466,-1332 200.8504,-1309.0019 104.3466,-1333.4357 104.3466,-1242 104.3466,-1242 104.3466,-1242 104.3466,-1026 104.3466,-984.0642 88.7463,-937.5729 77.2789,-909.063"/>
<polygon fill="#000000" stroke="#000000" points="80.4881,-907.6648 73.4274,-899.7656 74.0211,-910.3438 80.4881,-907.6648"/>
</g>
<!-- porygon2 -->
<g id="node61" class="node">
<title>porygon2</title>
<ellipse fill="none" stroke="#000000" cx="1293.3466" cy="-1314" rx="44.393" ry="18"/>
<text text-anchor="middle" x="1293.3466" y="-1310.3" font-family="Times,serif" font-size="14.00" fill="#000000">porygon2</text>
</g>
<!-- machamp&#45;&gt;porygon2 -->
<g id="edge82" class="edge">
<title>machamp&#45;&gt;porygon2</title>
<path fill="none" stroke="#000000" d="M1266.2455,-1368.2022C1270.3561,-1359.981 1275.3261,-1350.041 1279.8815,-1340.9301"/>
<polygon fill="#000000" stroke="#000000" points="1283.0836,-1342.3521 1284.4253,-1331.8425 1276.8226,-1339.2216 1283.0836,-1342.3521"/>
</g>
<!-- porygonz -->
<g id="node62" class="node">
<title>porygonz</title>
<ellipse fill="none" stroke="#000000" cx="1845.3466" cy="-1314" rx="44.393" ry="18"/>
<text text-anchor="middle" x="1845.3466" y="-1310.3" font-family="Times,serif" font-size="14.00" fill="#000000">porygonz</text>
</g>
<!-- machamp&#45;&gt;porygonz -->
<g id="edge83" class="edge">
<title>machamp&#45;&gt;porygonz</title>
<path fill="none" stroke="#000000" d="M1303.5937,-1384.7533C1396.8439,-1381.49 1613.6833,-1370.1028 1791.3466,-1332 1795.1512,-1331.184 1799.0629,-1330.1933 1802.9587,-1329.1007"/>
<polygon fill="#000000" stroke="#000000" points="1803.9732,-1332.4506 1812.5402,-1326.2171 1801.9558,-1325.7476 1803.9732,-1332.4506"/>
</g>
<!-- petilil&#45;&gt;landorus -->
<g id="edge101" class="edge">
<title>petilil&#45;&gt;landorus</title>
<path fill="none" stroke="#000000" d="M1197.6743,-1229.9289C1192.4093,-1227.648 1186.7763,-1225.5079 1181.3466,-1224 1106.7142,-1203.2742 881.3703,-1182.6281 779.8693,-1174.0909"/>
<polygon fill="#000000" stroke="#000000" points="780.1177,-1170.5996 769.8609,-1173.2547 779.5348,-1177.5753 780.1177,-1170.5996"/>
</g>
<!-- petilil&#45;&gt;ledyba -->
<g id="edge102" class="edge">
<title>petilil&#45;&gt;ledyba</title>
<path fill="none" stroke="#000000" d="M1198.1524,-1229.9179C1192.7633,-1227.5781 1186.9582,-1225.4163 1181.3466,-1224 964.4634,-1169.2619 896.9337,-1239.8692 679.3466,-1188 676.7069,-1187.3707 674.021,-1186.5975 671.3462,-1185.7288"/>
<polygon fill="#000000" stroke="#000000" points="672.4056,-1182.3897 661.8116,-1182.2517 670.0073,-1188.9661 672.4056,-1182.3897"/>
</g>
<!-- petilil&#45;&gt;loudred -->
<g id="edge103" class="edge">
<title>petilil&#45;&gt;loudred</title>
<path fill="none" stroke="#000000" d="M1246.6476,-1231.2209C1274.6862,-1219.2754 1320.2005,-1199.8847 1352.4867,-1186.1297"/>
<polygon fill="#000000" stroke="#000000" points="1354.2198,-1189.1957 1362.0479,-1182.0563 1351.4762,-1182.7558 1354.2198,-1189.1957"/>
</g>
<!-- petilil&#45;&gt;lumineon -->
<g id="edge104" class="edge">
<title>petilil&#45;&gt;lumineon</title>
<path fill="none" stroke="#000000" d="M1210.9192,-1224.937C1205.7195,-1216.4284 1199.3141,-1205.9468 1193.497,-1196.4279"/>
<polygon fill="#000000" stroke="#000000" points="1196.3597,-1194.4002 1188.1586,-1187.6924 1190.3867,-1198.0503 1196.3597,-1194.4002"/>
</g>
<!-- petilil&#45;&gt;lunatone -->
<g id="edge105" class="edge">
<title>petilil&#45;&gt;lunatone</title>
<path fill="none" stroke="#000000" d="M1250.7206,-1235.6105C1308.3272,-1223.0798 1436.5333,-1195.192 1505.7982,-1180.1253"/>
<polygon fill="#000000" stroke="#000000" points="1506.547,-1183.5444 1515.5745,-1177.9988 1505.059,-1176.7043 1506.547,-1183.5444"/>
</g>
<!-- pinsir&#45;&gt;registeel -->
<g id="edge106" class="edge">
<title>pinsir&#45;&gt;registeel</title>
<path fill="none" stroke="#000000" d="M2118.6888,-1302.546C2112.5204,-1299.9936 2105.7922,-1297.5792 2099.3466,-1296 1914.3667,-1250.6783 1858.8896,-1298.3836 1672.3466,-1260 1667.9259,-1259.0904 1663.3638,-1257.9324 1658.8514,-1256.6436"/>
<polygon fill="#000000" stroke="#000000" points="1659.7137,-1253.2472 1649.1268,-1253.6591 1657.6598,-1259.9391 1659.7137,-1253.2472"/>
</g>
<!-- pinsir&#45;&gt;relicanth -->
<g id="edge107" class="edge">
<title>pinsir&#45;&gt;relicanth</title>
<path fill="none" stroke="#000000" d="M2157.3618,-1298.1696C2179.5105,-1273.087 2218.3466,-1221.7309 2218.3466,-1170 2218.3466,-1170 2218.3466,-1170 2218.3466,-882 2218.3466,-770.2507 2206.2881,-726.085 2126.3466,-648 2044.2167,-567.7774 1906.8761,-538.0415 1833.0187,-527.4801"/>
<polygon fill="#000000" stroke="#000000" points="1833.4129,-524.0015 1823.0308,-526.1139 1832.4642,-530.937 1833.4129,-524.0015"/>
</g>
<!-- pinsir&#45;&gt;remoraid -->
<g id="edge108" class="edge">
<title>pinsir&#45;&gt;remoraid</title>
<path fill="none" stroke="#000000" d="M2168.1912,-1304.2553C2188.2514,-1295.4791 2215.4133,-1280.7545 2232.3466,-1260 2322.7962,-1149.1389 2332.3466,-1097.078 2332.3466,-954 2332.3466,-954 2332.3466,-954 2332.3466,-882 2332.3466,-813.4777 2337.9594,-628.851 2294.3466,-576 2279.27,-557.7298 2220.7083,-541.6371 2177.3905,-531.8752"/>
<polygon fill="#000000" stroke="#000000" points="2178.092,-528.4459 2167.573,-529.7112 2176.5852,-535.2818 2178.092,-528.4459"/>
</g>
<!-- pinsir&#45;&gt;rufflet -->
<g id="edge109" class="edge">
<title>pinsir&#45;&gt;rufflet</title>
<path fill="none" stroke="#000000" d="M2139.3115,-1295.8816C2127.9807,-1228.7921 2086.5343,-988.2417 2042.3466,-792 2040.4106,-783.402 2038.0819,-774.0933 2035.8844,-765.6656"/>
<polygon fill="#000000" stroke="#000000" points="2039.2492,-764.6992 2033.3042,-755.9295 2032.4828,-766.4925 2039.2492,-764.6992"/>
</g>
<!-- poliwrath&#45;&gt;haxorus -->
<g id="edge110" class="edge">
<title>poliwrath&#45;&gt;haxorus</title>
<path fill="none" stroke="#000000" d="M980.3165,-648.3881C964.5966,-624.6871 937.1042,-580.7818 920.3466,-540 912.0747,-519.8693 905.867,-496.0302 901.8394,-477.9457"/>
<polygon fill="#000000" stroke="#000000" points="905.2338,-477.0818 899.7207,-468.0344 898.3885,-478.5451 905.2338,-477.0818"/>
</g>
<!-- poliwrath&#45;&gt;heatmor -->
<g id="edge111" class="edge">
<title>poliwrath&#45;&gt;heatmor</title>
<path fill="none" stroke="#000000" d="M1024.4954,-653.6003C1031.2924,-651.3993 1038.4862,-649.3742 1045.3466,-648 1188.381,-619.3485 1636.0466,-601.1901 1787.6035,-595.7354"/>
<polygon fill="#000000" stroke="#000000" points="1788.1268,-599.219 1797.9956,-595.3646 1787.8772,-592.2235 1788.1268,-599.219"/>
</g>
<!-- poliwrath&#45;&gt;heatran -->
<g id="edge112" class="edge">
<title>poliwrath&#45;&gt;heatran</title>
<path fill="none" stroke="#000000" d="M1004.1307,-648.3238C1029.5186,-610.2419 1089.4742,-520.3086 1119.1263,-475.8305"/>
<polygon fill="#000000" stroke="#000000" points="1122.1672,-477.5787 1124.8021,-467.3167 1116.3429,-473.6958 1122.1672,-477.5787"/>
</g>
<!-- poochyena&#45;&gt;audino -->
<g id="edge113" class="edge">
<title>poochyena&#45;&gt;audino</title>
<path fill="none" stroke="#000000" d="M69.4906,-863.9265C75.3487,-836.7528 85.3466,-783.6844 85.3466,-738 85.3466,-738 85.3466,-738 85.3466,-162 85.3466,-117.669 91.3281,-96.3899 128.3466,-72 183.867,-35.42 1202.4136,-21.2301 1430.3494,-18.5056"/>
<polygon fill="#000000" stroke="#000000" points="1430.641,-22.0025 1440.5989,-18.3845 1430.5582,-15.003 1430.641,-22.0025"/>
</g>
<!-- magnezone -->
<g id="node63" class="node">
<title>magnezone</title>
<ellipse fill="none" stroke="#000000" cx="2897.3466" cy="-1386" rx="51.1914" ry="18"/>
<text text-anchor="middle" x="2897.3466" y="-1382.3" font-family="Times,serif" font-size="14.00" fill="#000000">magnezone</text>
</g>
<!-- magnezone&#45;&gt;emboar -->
<g id="edge84" class="edge">
<title>magnezone&#45;&gt;emboar</title>
<path fill="none" stroke="#000000" d="M2858.7675,-1374.0402C2851.3586,-1371.907 2843.6371,-1369.7954 2836.3466,-1368 2757.516,-1348.5868 2664.5163,-1331.3181 2610.2197,-1321.7923"/>
<polygon fill="#000000" stroke="#000000" points="2610.6706,-1318.3182 2600.2181,-1320.0485 2609.4682,-1325.2142 2610.6706,-1318.3182"/>
</g>
<!-- magnezone&#45;&gt;emolga -->
<g id="edge85" class="edge">
<title>magnezone&#45;&gt;emolga</title>
<path fill="none" stroke="#000000" d="M2907.3141,-1367.9772C2921.1105,-1341.2973 2944.3466,-1289.3363 2944.3466,-1242 2944.3466,-1242 2944.3466,-1242 2944.3466,-234 2944.3466,-195.0034 3079.7071,-221.2828 2763.3466,-144 2447.3559,-66.8075 2350.4084,-176.1576 2032.3466,-108 2029.341,-107.3559 2026.2752,-106.5393 2023.2251,-105.6112"/>
<polygon fill="#000000" stroke="#000000" points="2024.2234,-102.2538 2013.6289,-102.3412 2021.9655,-108.8797 2024.2234,-102.2538"/>
</g>
<!-- magnezone&#45;&gt;exeggcute -->
<g id="edge86" class="edge">
<title>magnezone&#45;&gt;exeggcute</title>
<path fill="none" stroke="#000000" d="M2893.2531,-1367.9045C2885.2592,-1330.9326 2868.3466,-1243.9703 2868.3466,-1170 2868.3466,-1170 2868.3466,-1170 2868.3466,-378 2868.3466,-270.371 2784.0237,-265.2939 2688.3466,-216 2628.8636,-185.3537 2552.443,-172.0248 2501.3323,-166.2761"/>
<polygon fill="#000000" stroke="#000000" points="2501.4569,-162.7697 2491.1428,-165.1927 2500.7167,-169.7305 2501.4569,-162.7697"/>
</g>
<!-- mamoswine -->
<g id="node64" class="node">
<title>mamoswine</title>
<ellipse fill="none" stroke="#000000" cx="3020.3466" cy="-1386" rx="53.8905" ry="18"/>
<text text-anchor="middle" x="3020.3466" y="-1382.3" font-family="Times,serif" font-size="14.00" fill="#000000">mamoswine</text>
</g>
<!-- mamoswine&#45;&gt;emboar -->
<g id="edge87" class="edge">
<title>mamoswine&#45;&gt;emboar</title>
<path fill="none" stroke="#000000" d="M2980.5669,-1373.7127C2972.9091,-1371.6097 2964.9159,-1369.593 2957.3466,-1368 2833.7629,-1341.9916 2685.5798,-1325.536 2611.4494,-1318.2925"/>
<polygon fill="#000000" stroke="#000000" points="2611.781,-1314.8084 2601.491,-1317.3316 2611.1086,-1321.776 2611.781,-1314.8084"/>
</g>
<!-- mamoswine&#45;&gt;emolga -->
<g id="edge88" class="edge">
<title>mamoswine&#45;&gt;emolga</title>
<path fill="none" stroke="#000000" d="M3020.3466,-1367.8146C3020.3466,-1340.4983 3020.3466,-1287.25 3020.3466,-1242 3020.3466,-1242 3020.3466,-1242 3020.3466,-234 3020.3466,-147.3288 2931.0618,-166.4424 2847.3466,-144 2497.1372,-50.1156 2387.0646,-183.0736 2032.3466,-108 2029.3393,-107.3635 2026.2724,-106.5524 2023.2215,-105.6281"/>
<polygon fill="#000000" stroke="#000000" points="2024.2182,-102.2702 2013.6238,-102.365 2021.965,-108.8977 2024.2182,-102.2702"/>
</g>
<!-- mamoswine&#45;&gt;exeggcute -->
<g id="edge89" class="edge">
<title>mamoswine&#45;&gt;exeggcute</title>
<path fill="none" stroke="#000000" d="M3012.2878,-1367.7668C3001.1332,-1340.8248 2982.3466,-1288.5405 2982.3466,-1242 2982.3466,-1242 2982.3466,-1242 2982.3466,-378 2982.3466,-309.9028 2915.0127,-325.7649 2858.3466,-288 2807.2233,-253.9291 2797.7477,-237.8984 2740.3466,-216 2660.4458,-185.518 2561.6381,-171.9214 2501.0752,-166.0908"/>
<polygon fill="#000000" stroke="#000000" points="2501.2392,-162.5911 2490.9593,-165.1551 2500.5944,-169.5614 2501.2392,-162.5911"/>
</g>
<!-- vigoroth -->
<g id="node65" class="node">
<title>vigoroth</title>
<ellipse fill="none" stroke="#000000" cx="1094.3466" cy="-666" rx="40.0939" ry="18"/>
<text text-anchor="middle" x="1094.3466" y="-662.3" font-family="Times,serif" font-size="14.00" fill="#000000">vigoroth</text>
</g>
<!-- vigoroth&#45;&gt;haxorus -->
<g id="edge154" class="edge">
<title>vigoroth&#45;&gt;haxorus</title>
<path fill="none" stroke="#000000" d="M1074.6055,-650.1018C1046.944,-627.3152 995.839,-583.3219 958.3466,-540 940.8472,-519.7798 923.8243,-494.5453 912.0572,-475.9462"/>
<polygon fill="#000000" stroke="#000000" points="914.9872,-474.0304 906.7237,-467.3999 909.0487,-477.7364 914.9872,-474.0304"/>
</g>
<!-- vigoroth&#45;&gt;heatmor -->
<g id="edge155" class="edge">
<title>vigoroth&#45;&gt;heatmor</title>
<path fill="none" stroke="#000000" d="M1133.822,-662.1798C1259.4068,-650.0264 1649.5821,-612.2675 1788.5612,-598.8179"/>
<polygon fill="#000000" stroke="#000000" points="1788.8987,-602.3017 1798.515,-597.8547 1788.2244,-595.3343 1788.8987,-602.3017"/>
</g>
<!-- vigoroth&#45;&gt;heatran -->
<g id="edge156" class="edge">
<title>vigoroth&#45;&gt;heatran</title>
<path fill="none" stroke="#000000" d="M1097.8553,-647.9555C1105.1744,-610.3144 1122.1159,-523.1867 1130.8779,-478.1246"/>
<polygon fill="#000000" stroke="#000000" points="1134.3453,-478.6293 1132.8184,-468.1451 1127.474,-477.2932 1134.3453,-478.6293"/>
</g>
<!-- vulpix -->
<g id="node66" class="node">
<title>vulpix</title>
<ellipse fill="none" stroke="#000000" cx="3313.3466" cy="-1386" rx="33.2948" ry="18"/>
<text text-anchor="middle" x="3313.3466" y="-1382.3" font-family="Times,serif" font-size="14.00" fill="#000000">vulpix</text>
</g>
<!-- wailord -->
<g id="node67" class="node">
<title>wailord</title>
<ellipse fill="none" stroke="#000000" cx="1608.3466" cy="-522" rx="37.8943" ry="18"/>
<text text-anchor="middle" x="1608.3466" y="-518.3" font-family="Times,serif" font-size="14.00" fill="#000000">wailord</text>
</g>
<!-- wailord&#45;&gt;darmanitan -->
<g id="edge157" class="edge">
<title>wailord&#45;&gt;darmanitan</title>
<path fill="none" stroke="#000000" d="M1599.6949,-504.2022C1595.6985,-495.981 1590.8665,-486.041 1586.4376,-476.9301"/>
<polygon fill="#000000" stroke="#000000" points="1589.5398,-475.306 1582.0201,-467.8425 1583.2442,-478.3664 1589.5398,-475.306"/>
</g>
<!-- wailord&#45;&gt;deino -->
<g id="edge158" class="edge">
<title>wailord&#45;&gt;deino</title>
<path fill="none" stroke="#000000" d="M1632.4479,-508.1177C1652.4364,-496.6042 1680.9803,-480.163 1702.6106,-467.704"/>
<polygon fill="#000000" stroke="#000000" points="1704.4939,-470.6583 1711.4123,-462.6341 1701,-464.5926 1704.4939,-470.6583"/>
</g>
<!-- wartortle -->
<g id="node68" class="node">
<title>wartortle</title>
<ellipse fill="none" stroke="#000000" cx="2412.3466" cy="-1386" rx="42.4939" ry="18"/>
<text text-anchor="middle" x="2412.3466" y="-1382.3" font-family="Times,serif" font-size="14.00" fill="#000000">wartortle</text>
</g>
<!-- wartortle&#45;&gt;emboar -->
<g id="edge159" class="edge">
<title>wartortle&#45;&gt;emboar</title>
<path fill="none" stroke="#000000" d="M2440.9366,-1372.4574C2465.5991,-1360.7751 2501.3516,-1343.8397 2528.0332,-1331.2011"/>
<polygon fill="#000000" stroke="#000000" points="2529.8764,-1334.2008 2537.4155,-1326.7568 2526.8798,-1327.8747 2529.8764,-1334.2008"/>
</g>
<!-- wartortle&#45;&gt;emolga -->
<g id="edge160" class="edge">
<title>wartortle&#45;&gt;emolga</title>
<path fill="none" stroke="#000000" d="M2427.9303,-1368.9121C2494.8355,-1294.8344 2754.3466,-999.9038 2754.3466,-882 2754.3466,-882 2754.3466,-882 2754.3466,-666 2754.3466,-419.1096 2785.1634,-254.4302 2564.3466,-144 2458.3678,-91.0001 2147.976,-133.8906 2032.3466,-108 2029.347,-107.3284 2026.2856,-106.4919 2023.2385,-105.55"/>
<polygon fill="#000000" stroke="#000000" points="2024.2425,-102.1942 2013.6478,-102.2549 2021.9679,-108.8144 2024.2425,-102.1942"/>
</g>
<!-- wartortle&#45;&gt;exeggcute -->
<g id="edge161" class="edge">
<title>wartortle&#45;&gt;exeggcute</title>
<path fill="none" stroke="#000000" d="M2404.473,-1368.2135C2393.3425,-1341.4059 2374.3466,-1288.799 2374.3466,-1242 2374.3466,-1242 2374.3466,-1242 2374.3466,-1098 2374.3466,-923.7574 2640.3466,-984.2426 2640.3466,-810 2640.3466,-810 2640.3466,-810 2640.3466,-594 2640.3466,-453.8681 2631.5463,-410.968 2564.3466,-288 2541.5939,-246.365 2501.7206,-208.2153 2474.4509,-185.0541"/>
<polygon fill="#000000" stroke="#000000" points="2476.3466,-182.0777 2466.4254,-178.3601 2471.8629,-187.4532 2476.3466,-182.0777"/>
</g>
<!-- whismur -->
<g id="node69" class="node">
<title>whismur</title>
<ellipse fill="none" stroke="#000000" cx="1649.3466" cy="-1314" rx="42.4939" ry="18"/>
<text text-anchor="middle" x="1649.3466" y="-1310.3" font-family="Times,serif" font-size="14.00" fill="#000000">whismur</text>
</g>
<!-- whismur&#45;&gt;registeel -->
<g id="edge162" class="edge">
<title>whismur&#45;&gt;registeel</title>
<path fill="none" stroke="#000000" d="M1641.6837,-1296.2022C1638.1812,-1288.0675 1633.9543,-1278.2501 1630.0655,-1269.2181"/>
<polygon fill="#000000" stroke="#000000" points="1633.1981,-1267.6433 1626.0288,-1259.8425 1626.7688,-1270.4115 1633.1981,-1267.6433"/>
</g>
<!-- whismur&#45;&gt;relicanth -->
<g id="edge163" class="edge">
<title>whismur&#45;&gt;relicanth</title>
<path fill="none" stroke="#000000" d="M1665.2522,-1296.8766C1687.2677,-1271.3169 1724.3466,-1220.7377 1724.3466,-1170 1724.3466,-1170 1724.3466,-1170 1724.3466,-810 1724.3466,-705.9915 1672.8317,-668.0005 1721.3466,-576 1728.1285,-563.1393 1739.2996,-551.8999 1750.2415,-543.0535"/>
<polygon fill="#000000" stroke="#000000" points="1752.6564,-545.6136 1758.4876,-536.7678 1748.4128,-540.0465 1752.6564,-545.6136"/>
</g>
<!-- whismur&#45;&gt;remoraid -->
<g id="edge164" class="edge">
<title>whismur&#45;&gt;remoraid</title>
<path fill="none" stroke="#000000" d="M1672.7603,-1298.9738C1705.8587,-1275.6871 1762.3466,-1227.5189 1762.3466,-1170 1762.3466,-1170 1762.3466,-1170 1762.3466,-954 1762.3466,-861.9614 1822.5722,-853.1653 1891.3466,-792 1914.0174,-771.8375 1925.3216,-774.5282 1949.3466,-756 1967.769,-741.7926 1967.1881,-731.6133 1987.3466,-720 2036.3327,-691.7793 2072.9135,-727.2282 2109.3466,-684 2140.9352,-646.5199 2138.493,-585.6615 2133.5982,-550.1742"/>
<polygon fill="#000000" stroke="#000000" points="2137.0172,-549.3798 2132.0353,-540.0294 2130.0988,-550.4457 2137.0172,-549.3798"/>
</g>
<!-- whismur&#45;&gt;rufflet -->
<g id="edge165" class="edge">
<title>whismur&#45;&gt;rufflet</title>
<path fill="none" stroke="#000000" d="M1682.6659,-1302.7115C1715.2896,-1291.1602 1762.1067,-1273.0968 1776.3466,-1260 1818.1275,-1221.5731 1876.3466,-1044.1382 1876.3466,-1026 1876.3466,-1026 1876.3466,-1026 1876.3466,-882 1876.3466,-818.1988 1947.7954,-774.1945 1992.7213,-752.8315"/>
<polygon fill="#000000" stroke="#000000" points="1994.2516,-755.9801 2001.8702,-748.6175 1991.3231,-749.6221 1994.2516,-755.9801"/>
</g>
<!-- wingull -->
<g id="node70" class="node">
<title>wingull</title>
<ellipse fill="none" stroke="#000000" cx="1134.3466" cy="-1242" rx="37.8943" ry="18"/>
<text text-anchor="middle" x="1134.3466" y="-1238.3" font-family="Times,serif" font-size="14.00" fill="#000000">wingull</text>
</g>
<!-- wingull&#45;&gt;landorus -->
<g id="edge166" class="edge">
<title>wingull&#45;&gt;landorus</title>
<path fill="none" stroke="#000000" d="M1098.7605,-1235.6736C1025.9215,-1222.7244 859.7803,-1193.1882 777.4376,-1178.5495"/>
<polygon fill="#000000" stroke="#000000" points="777.8042,-1175.0599 767.3459,-1176.7554 776.5789,-1181.9518 777.8042,-1175.0599"/>
</g>
<!-- wingull&#45;&gt;ledyba -->
<g id="edge167" class="edge">
<title>wingull&#45;&gt;ledyba</title>
<path fill="none" stroke="#000000" d="M1096.5327,-1241.0506C1017.6902,-1238.3043 830.5122,-1227.7742 679.3466,-1188 676.8812,-1187.3513 674.3715,-1186.5897 671.8657,-1185.7529"/>
<polygon fill="#000000" stroke="#000000" points="672.9157,-1182.4097 662.3224,-1182.2315 670.4925,-1188.9769 672.9157,-1182.4097"/>
</g>
<!-- wingull&#45;&gt;loudred -->
<g id="edge168" class="edge">
<title>wingull&#45;&gt;loudred</title>
<path fill="none" stroke="#000000" d="M1163.2481,-1230.3441C1169.1905,-1228.1138 1175.4372,-1225.8883 1181.3466,-1224 1237.5291,-1206.0468 1303.6238,-1189.7587 1346.209,-1179.8738"/>
<polygon fill="#000000" stroke="#000000" points="1347.0217,-1183.2783 1355.9805,-1177.6223 1345.4499,-1176.4571 1347.0217,-1183.2783"/>
</g>
<!-- wingull&#45;&gt;lumineon -->
<g id="edge169" class="edge">
<title>wingull&#45;&gt;lumineon</title>
<path fill="none" stroke="#000000" d="M1144.7557,-1224.5708C1149.8413,-1216.0553 1156.0671,-1205.6308 1161.7095,-1196.183"/>
<polygon fill="#000000" stroke="#000000" points="1164.7618,-1197.8983 1166.8843,-1187.5182 1158.752,-1194.3091 1164.7618,-1197.8983"/>
</g>
<!-- wingull&#45;&gt;lunatone -->
<g id="edge170" class="edge">
<title>wingull&#45;&gt;lunatone</title>
<path fill="none" stroke="#000000" d="M1162.8442,-1229.9085C1168.8726,-1227.6851 1175.2553,-1225.5731 1181.3466,-1224 1292.594,-1195.2704 1323.6967,-1204.8843 1437.3466,-1188 1459.149,-1184.7609 1483.249,-1181.0144 1503.7309,-1177.7809"/>
<polygon fill="#000000" stroke="#000000" points="1504.4442,-1181.2116 1513.7738,-1176.1908 1503.3494,-1174.2977 1504.4442,-1181.2116"/>
</g>
</g>
</svg>
