<svg xmlns="http://www.w3.org/2000/svg" xmlns:svg="http://www.w3.org/2000/svg" xmlns:xlink="http://www.w3.org/1999/xlink" width="400" height="400">
<circle cx="333" cy="129" r="3" fill="red" /><circle cx="39" cy="189" r="3" fill="red" />
<circle cx="140" cy="156" r="3" fill="red" /><circle cx="292" cy="134" r="3" fill="red" />
<circle cx="393" cy="52" r="3" fill="red" /><circle cx="160" cy="166" r="3" fill="red" />
<circle cx="362" cy="122" r="3" fill="red" /><circle cx="13" cy="193" r="3" fill="red" />
<circle cx="341" cy="104" r="3" fill="red" /><circle cx="320" cy="113" r="3" fill="red" />
<circle cx="109" cy="177" r="3" fill="red" /><circle cx="203" cy="152" r="3" fill="red" />
<circle cx="343" cy="100" r="3" fill="red" /><circle cx="225" cy="110" r="3" fill="red" />
<circle cx="23" cy="186" r="3" fill="red" /><circle cx="282" cy="102" r="3" fill="red" />
<circle cx="284" cy="98" r="3" fill="red" /><circle cx="205" cy="133" r="3" fill="red" />
<circle cx="297" cy="114" r="3" fill="red" /><circle cx="292" cy="126" r="3" fill="red" />
<circle cx="339" cy="112" r="3" fill="red" /><circle cx="327" cy="79" r="3" fill="red" />
<circle cx="253" cy="136" r="3" fill="red" /><circle cx="61" cy="169" r="3" fill="red" />
<circle cx="128" cy="176" r="3" fill="red" /><circle cx="346" cy="72" r="3" fill="red" />
<circle cx="316" cy="103" r="3" fill="red" /><circle cx="124" cy="162" r="3" fill="red" />
<circle cx="65" cy="181" r="3" fill="red" /><circle cx="159" cy="137" r="3" fill="red" />
<circle cx="212" cy="116" r="3" fill="red" /><circle cx="337" cy="86" r="3" fill="red" />
<circle cx="215" cy="136" r="3" fill="red" /><circle cx="153" cy="137" r="3" fill="red" />
<circle cx="390" cy="104" r="3" fill="red" /><circle cx="100" cy="180" r="3" fill="red" />
<circle cx="76" cy="188" r="3" fill="red" /><circle cx="77" cy="181" r="3" fill="red" />
<circle cx="69" cy="195" r="3" fill="red" /><circle cx="92" cy="186" r="3" fill="red" />
<circle cx="275" cy="96" r="3" fill="red" /><circle cx="250" cy="147" r="3" fill="red" />
<circle cx="34" cy="174" r="3" fill="red" /><circle cx="213" cy="134" r="3" fill="red" />
<circle cx="186" cy="129" r="3" fill="red" /><circle cx="189" cy="154" r="3" fill="red" />
<circle cx="361" cy="82" r="3" fill="red" /><circle cx="363" cy="89" r="3" fill="red" />
<line x1="0" y1="200.132272536" x2="14611582" y2="-4382638.867727464" stroke="blue" />
</svg>
