<?xml version="1.0" encoding="UTF-8" standalone="yes"?>
<!DOCTYPE svg PUBLIC "-//W3C//DTD SVG 1.0//EN" "http://www.w3.org/TR/2001/REC-SVG-20010904/DTD/svg10.dtd">
<svg height="230" width="800" xmlns="http://www.w3.org/2000/svg" xmlns:svg="http://www.w3.org/2000/svg" xmlns:xlink="http://www.w3.org/1999/xlink">
	<rect fill="#222222" height="230" width="800" x="0" y="0" />
	<circle cx="530" cy="70" r="8" style="fill: #b0ec13" />
	<circle cx="530" cy="140" r="8" style="fill: #b0ec13" />
	<circle cx="260" cy="70" r="8" style="fill: #b0ec13" />
	<circle cx="260" cy="140" r="8" style="fill: #b0ec13" />
	<g style="fill: none">
		<line style="stroke: #333333; stroke-width: 10" x1="10" x2="110" y1="10" y2="10" />
		<line style="stroke: #333333; stroke-width: 10" x1="10" x2="10" y1="10" y2="110" />
		<line style="stroke: #b0ec13; stroke-width: 10" x1="110" x2="110" y1="10" y2="110" />
		<line style="stroke: #333333; stroke-width: 10" x1="10" x2="110" y1="110" y2="110" />
		<line style="stroke: #333333; stroke-width: 10" x1="10" x2="10" y1="110" y2="210" />
		<line style="stroke: #b0ec13; stroke-width: 10" x1="110" x2="110" y1="110" y2="210" />
		<line style="stroke: #333333; stroke-width: 10" x1="10" x2="110" y1="210" y2="210" />
	</g>
	<g style="fill: none">
		<line style="stroke: #b0ec13; stroke-width: 10" x1="140" x2="240" y1="10" y2="10" />
		<line style="stroke: #333333; stroke-width: 10" x1="140" x2="140" y1="10" y2="110" />
		<line style="stroke: #b0ec13; stroke-width: 10" x1="240" x2="240" y1="10" y2="110" />
		<line style="stroke: #b0ec13; stroke-width: 10" x1="140" x2="240" y1="110" y2="110" />
		<line style="stroke: #333333; stroke-width: 10" x1="140" x2="140" y1="110" y2="210" />
		<line style="stroke: #b0ec13; stroke-width: 10" x1="240" x2="240" y1="110" y2="210" />
		<line style="stroke: #b0ec13; stroke-width: 10" x1="140" x2="240" y1="210" y2="210" />
	</g>
	<g style="fill: none">
		<line style="stroke: #333333; stroke-width: 10" x1="280" x2="380" y1="10" y2="10" />
		<line style="stroke: #b0ec13; stroke-width: 10" x1="280" x2="280" y1="10" y2="110" />
		<line style="stroke: #b0ec13; stroke-width: 10" x1="380" x2="380" y1="10" y2="110" />
		<line style="stroke: #b0ec13; stroke-width: 10" x1="280" x2="380" y1="110" y2="110" />
		<line style="stroke: #333333; stroke-width: 10" x1="280" x2="280" y1="110" y2="210" />
		<line style="stroke: #b0ec13; stroke-width: 10" x1="380" x2="380" y1="110" y2="210" />
		<line style="stroke: #333333; stroke-width: 10" x1="280" x2="380" y1="210" y2="210" />
	</g>
	<g style="fill: none">
		<line style="stroke: #b0ec13; stroke-width: 10" x1="410" x2="510" y1="10" y2="10" />
		<line style="stroke: #333333; stroke-width: 10" x1="410" x2="410" y1="10" y2="110" />
		<line style="stroke: #b0ec13; stroke-width: 10" x1="510" x2="510" y1="10" y2="110" />
		<line style="stroke: #b0ec13; stroke-width: 10" x1="410" x2="510" y1="110" y2="110" />
		<line style="stroke: #b0ec13; stroke-width: 10" x1="410" x2="410" y1="110" y2="210" />
		<line style="stroke: #333333; stroke-width: 10" x1="510" x2="510" y1="110" y2="210" />
		<line style="stroke: #b0ec13; stroke-width: 10" x1="410" x2="510" y1="210" y2="210" />
	</g>
	<g style="fill: none">
		<line style="stroke: #333333; stroke-width: 10" x1="550" x2="650" y1="10" y2="10" />
		<line style="stroke: #333333; stroke-width: 10" x1="550" x2="550" y1="10" y2="110" />
		<line style="stroke: #b0ec13; stroke-width: 10" x1="650" x2="650" y1="10" y2="110" />
		<line style="stroke: #333333; stroke-width: 10" x1="550" x2="650" y1="110" y2="110" />
		<line style="stroke: #333333; stroke-width: 10" x1="550" x2="550" y1="110" y2="210" />
		<line style="stroke: #b0ec13; stroke-width: 10" x1="650" x2="650" y1="110" y2="210" />
		<line style="stroke: #333333; stroke-width: 10" x1="550" x2="650" y1="210" y2="210" />
	</g>
	<g style="fill: none">
		<line style="stroke: #b0ec13; stroke-width: 10" x1="680" x2="780" y1="10" y2="10" />
		<line style="stroke: #b0ec13; stroke-width: 10" x1="680" x2="680" y1="10" y2="110" />
		<line style="stroke: #333333; stroke-width: 10" x1="780" x2="780" y1="10" y2="110" />
		<line style="stroke: #b0ec13; stroke-width: 10" x1="680" x2="780" y1="110" y2="110" />
		<line style="stroke: #b0ec13; stroke-width: 10" x1="680" x2="680" y1="110" y2="210" />
		<line style="stroke: #b0ec13; stroke-width: 10" x1="780" x2="780" y1="110" y2="210" />
		<line style="stroke: #b0ec13; stroke-width: 10" x1="680" x2="780" y1="210" y2="210" />
	</g>
	<!--
	Generated using the Perl SVG Module V2.84
	by Ronan Oger
	Info: http://www.roitsystems.com/
	-->
</svg>